<svg width="80" height="80" viewBox="0 0 80 80" fill="none" xmlns="http://www.w3.org/2000/svg">
<g clip-path="url(#clip0_2_1383)">
<path d="M22.5 40C22.5 30.3368 30.3368 22.5 40 22.5C49.6632 22.5 57.5 30.3368 57.5 40C57.5 49.6633 49.6635 57.4997 40.0006 57.5C30.3364 57.4893 22.5 49.663 22.5 40Z" fill="white" stroke="white"/>
<path d="M40.0042 0.635757C40.0042 0.635757 63.2134 -0.402046 75.5184 22.8435H38.0293C38.0293 22.8435 30.9544 22.6163 24.9108 31.1686C23.1747 34.7582 21.3086 38.4559 23.4027 45.7433C20.386 40.6507 7.38708 18.0972 7.38708 18.0972C7.38708 18.0972 16.5561 1.55473 40.0042 0.635757Z" fill="#EF3F36"/>
<path d="M74.3135 59.647C74.3135 59.647 63.6039 80.2003 37.2589 79.184C40.5141 73.5725 56.0085 46.8348 56.0085 46.8348C56.0085 46.8348 59.7521 40.8451 55.3359 31.3523C53.0895 28.0547 50.8001 24.6057 43.422 22.7674C49.3574 22.7137 75.453 22.7674 75.453 22.7674C75.453 22.7674 85.2291 38.9531 74.3135 59.647Z" fill="#FCD900"/>
<path d="M5.85706 59.8096C5.85706 59.8096 -6.65379 40.294 7.40855 18.0648C10.653 23.6763 26.1476 50.4141 26.1476 50.4141C26.1476 50.4141 29.4897 56.6419 39.9387 57.5713C43.9212 57.2796 48.066 57.0309 53.3614 51.5926C50.442 56.7392 37.3451 79.2279 37.3451 79.2279C37.3451 79.2279 18.3784 79.574 5.85675 59.8096H5.85706Z" fill="#61BC5B"/>
<path d="M37.2479 79.3789L42.5212 57.4526C42.5212 57.4526 48.3156 56.9982 53.1769 51.6898C50.1602 56.977 37.2479 79.3789 37.2479 79.3789V79.3789Z" fill="#5AB055"/>
<path d="M25.2783 40.2507C25.2783 32.2067 31.8214 25.6762 39.9053 25.6762C47.978 25.6762 54.5319 32.196 54.5319 40.2507C54.5319 48.2949 47.9891 54.8254 39.9053 54.8254C31.8322 54.8254 25.2783 48.2949 25.2783 40.2507V40.2507Z" fill="url(#paint0_linear_2_1383)"/>
<path d="M75.4421 22.7786L53.7299 29.1253C53.7299 29.1253 50.4532 24.3353 43.4113 22.7786C49.5201 22.7461 75.4421 22.7786 75.4421 22.7786V22.7786Z" fill="#EACA05"/>
<path d="M22.9797 44.9436C19.9303 39.6781 7.38708 18.0974 7.38708 18.0974L23.4678 33.9477C23.4678 33.9477 21.8183 37.3319 22.437 42.1756L22.9793 44.9436H22.9797Z" fill="#DF3A32"/>
</g>
<defs>
<linearGradient id="paint0_linear_2_1383" x1="39.9045" y1="25.882" x2="39.9045" y2="53.948" gradientUnits="userSpaceOnUse">
<stop stop-color="#86BBE5"/>
<stop offset="1" stop-color="#1072BA"/>
</linearGradient>
<clipPath id="clip0_2_1383">
<rect width="80" height="80" fill="white"/>
</clipPath>
</defs>
</svg>
