<svg width="80" height="80" viewBox="0 0 80 80" fill="none" xmlns="http://www.w3.org/2000/svg">
<g clip-path="url(#clip0_1_1346)">
<path d="M0.625 27.625C0.625 18.1741 0.625 13.4487 2.46426 9.83891C4.08213 6.66368 6.66368 4.08213 9.83891 2.46426C13.4487 0.625 18.1741 0.625 27.625 0.625H52.375C61.8259 0.625 66.5513 0.625 70.1611 2.46426C73.3363 4.08213 75.9179 6.66368 77.5357 9.83891C79.375 13.4487 79.375 18.1741 79.375 27.625V52.375C79.375 61.8259 79.375 66.5513 77.5357 70.1611C75.9179 73.3363 73.3363 75.9179 70.1611 77.5357C66.5513 79.375 61.8259 79.375 52.375 79.375H27.625C18.1741 79.375 13.4487 79.375 9.83891 77.5357C6.66368 75.9179 4.08213 73.3363 2.46426 70.1611C0.625 66.5513 0.625 61.8259 0.625 52.375V27.625Z" fill="url(#paint0_linear_1_1346)"/>
<path d="M63.2741 23.2C59.0166 19.6 53.9077 17.8 48.5149 17.5L47.6634 18.4C52.4885 19.6 56.746 22 60.7196 25.3C55.8945 22.6 50.5017 20.8 44.8251 20.2C43.1221 19.9 41.703 19.9 40 19.9C38.297 19.9 36.8779 19.9 35.1749 20.2C29.4983 20.8 24.1055 22.6 19.2804 25.3C23.254 22 27.5115 19.6 32.3366 18.4L31.4851 17.5C26.0923 17.8 20.9834 19.6 16.7259 23.2C11.9008 32.8 9.34633 43.6 9.0625 54.7C13.32 59.5 19.2804 62.5 25.5247 62.5C25.5247 62.5 27.5115 60.1 28.9306 58C25.2408 57.1 21.8349 55 19.5642 51.7C21.551 52.9 23.5378 54.1 25.5247 55C28.0791 56.2 30.6336 56.8 33.1881 57.4C35.4587 57.7 37.7294 58 40 58C42.2706 58 44.5413 57.7 46.8119 57.4C49.3664 56.8 51.9209 56.2 54.4753 55C56.4622 54.1 58.449 52.9 60.4358 51.7C58.1651 55 54.7592 57.1 51.0694 58C52.4885 60.1 54.4753 62.5 54.4753 62.5C60.7196 62.5 66.68 59.5 70.9375 54.7C70.6537 43.6 68.0992 32.8 63.2741 23.2ZM30.6336 49.3C27.7953 49.3 25.2408 46.6 25.2408 43.3C25.2408 40 27.7953 37.3 30.6336 37.3C33.4719 37.3 36.0264 40 36.0264 43.3C36.0264 46.6 33.4719 49.3 30.6336 49.3ZM49.3664 49.3C46.5281 49.3 43.9736 46.6 43.9736 43.3C43.9736 40 46.5281 37.3 49.3664 37.3C52.2047 37.3 54.7592 40 54.7592 43.3C54.7592 46.6 52.2047 49.3 49.3664 49.3Z" fill="white"/>
</g>
<defs>
<linearGradient id="paint0_linear_1_1346" x1="40" y1="0.625" x2="40" y2="79.375" gradientUnits="userSpaceOnUse">
<stop stop-color="#5865F2"/>
<stop offset="1" stop-color="#5865F2"/>
</linearGradient>
<clipPath id="clip0_1_1346">
<rect width="80" height="80" fill="white"/>
</clipPath>
</defs>
</svg>
