<svg width="80" height="80" viewBox="0 0 80 80" fill="none" xmlns="http://www.w3.org/2000/svg">
<g clip-path="url(#clip0_5_1464)">
<path d="M2.27132 43.9746C0.0762223 41.7795 0.0762267 38.2205 2.27133 36.0254L36.0254 2.27132C38.2205 0.0762223 41.7795 0.0762267 43.9746 2.27133L77.7287 36.0254C79.9238 38.2205 79.9238 41.7795 77.7287 43.9746L43.9746 77.7287C41.7795 79.9238 38.2205 79.9238 36.0254 77.7287L2.27132 43.9746Z" fill="#EE513B"/>
<path d="M29.1689 9.23587L25.7507 12.654L34.5789 21.4822C34.2218 22.2484 34.0224 23.1029 34.0224 24.0039C34.0224 26.5621 35.6297 28.745 37.8896 29.5976V51.1934C35.6297 52.0461 34.0224 54.2289 34.0224 56.7871C34.0224 60.0879 36.6982 62.7637 39.999 62.7637C43.2997 62.7637 45.9755 60.0879 45.9755 56.7871C45.9755 54.4678 44.6544 52.457 42.7236 51.4663V29.6269L51.1626 38.0658C50.8229 38.8165 50.6337 39.6498 50.6337 40.5273C50.6337 43.8281 53.3095 46.5039 56.6103 46.5039C59.9111 46.5039 62.5869 43.8281 62.5869 40.5273C62.5869 37.2266 59.9111 34.5508 56.6103 34.5508C55.9689 34.5508 55.3511 34.6518 54.7719 34.8389L45.7086 25.7756C45.8821 25.2158 45.9755 24.6208 45.9755 24.0039C45.9755 20.7031 43.2997 18.0273 39.999 18.0273C39.3821 18.0273 38.7871 18.1208 38.2273 18.2943L29.1689 9.23587Z" fill="white"/>
</g>
<defs>
<clipPath id="clip0_5_1464">
<rect width="80" height="80" fill="white"/>
</clipPath>
</defs>
</svg>
