<svg width="80" height="80" viewBox="0 0 80 80" fill="none" xmlns="http://www.w3.org/2000/svg">
<g clip-path="url(#clip0_5_1682)">
<path fill-rule="evenodd" clip-rule="evenodd" d="M39 3C18.005 3 1 19.7469 1 40.4232C1 56.983 11.8775 70.9699 26.9825 75.9285C28.8825 76.256 29.595 75.1333 29.595 74.1509C29.595 73.2621 29.5475 70.315 29.5475 67.1808C20 68.9117 17.53 64.8887 16.77 62.7836C16.3425 61.7077 14.49 58.3864 12.875 57.4976C11.545 56.7959 9.645 55.0651 12.8275 55.0183C15.82 54.9715 17.9575 57.7315 18.67 58.8542C22.09 64.5144 27.5525 62.9239 29.7375 61.9416C30.07 59.5091 31.0675 57.8718 32.16 56.9362C23.705 56.0006 14.87 52.7729 14.87 38.4585C14.87 34.3887 16.3425 31.0206 18.765 28.401C18.385 27.4654 17.055 23.6296 19.145 18.4839C19.145 18.4839 22.3275 17.5015 29.595 22.3197C32.635 21.4777 35.865 21.0567 39.095 21.0567C42.325 21.0567 45.555 21.4777 48.595 22.3197C55.8625 17.4547 59.045 18.4839 59.045 18.4839C61.135 23.6296 59.805 27.4654 59.425 28.401C61.8475 31.0206 63.32 34.342 63.32 38.4585C63.32 52.8197 54.4375 56.0006 45.9825 56.9362C47.36 58.1057 48.5475 60.3511 48.5475 63.8595C48.5475 68.8649 48.5 72.8879 48.5 74.1509C48.5 75.1333 49.2125 76.3027 51.1125 75.9285C66.1225 70.9699 77 56.9362 77 40.4232C77 19.7469 59.995 3 39 3Z" fill="white"/>
</g>
<defs>
<clipPath id="clip0_5_1682">
<rect width="80" height="80" fill="white"/>
</clipPath>
</defs>
</svg>
