<svg width="80" height="80" viewBox="0 0 80 80" fill="none" xmlns="http://www.w3.org/2000/svg">
<g clip-path="url(#clip0_5_1732)">
<path d="M8.61841 58.872L11.4935 60.532L43.5235 5.05602L40.6484 3.39602L8.61841 58.872Z" fill="#E535AB"/>
<path d="M72.02 54.44H7.95996V57.76H72.02V54.44Z" fill="#E535AB"/>
<path d="M9.22753 56.3051L41.2695 74.8051L42.9295 71.93L10.8875 53.43L9.22753 56.3051Z" fill="#E535AB"/>
<path d="M37.0625 8.08936L69.1045 26.5894L70.7645 23.7142L38.7225 5.21424L37.0625 8.08936Z" fill="#E535AB"/>
<path d="M9.23648 23.7016L10.8965 26.5767L42.9385 8.07669L41.2785 5.20157L9.23648 23.7016Z" fill="#E535AB"/>
<path d="M36.4837 5.05664L68.5137 60.5326L71.3888 58.8726L39.3588 3.39664L36.4837 5.05664Z" fill="#E535AB"/>
<path d="M13.82 21.5H10.5V58.5H13.82V21.5Z" fill="#E535AB"/>
<path d="M69.4999 21.5H66.1799V58.5H69.4999V21.5Z" fill="#E535AB"/>
<path d="M39.2545 70.8884L40.7045 73.3998L68.5723 57.3098L67.1223 54.7984L39.2545 70.8884Z" fill="#E535AB"/>
<path d="M73.8999 59.58C71.9799 62.92 67.6999 64.06 64.3599 62.14C61.0199 60.22 59.8799 55.94 61.7999 52.6C63.7199 49.26 67.9999 48.12 71.3399 50.04C74.6999 51.98 75.8399 56.24 73.8999 59.58Z" fill="#E535AB"/>
<path d="M18.18 27.4C16.26 30.74 11.98 31.88 8.63996 29.96C5.29996 28.04 4.15996 23.76 6.07996 20.42C7.99996 17.08 12.28 15.94 15.62 17.86C18.96 19.8 20.1 24.06 18.18 27.4Z" fill="#E535AB"/>
<path d="M6.09998 59.58C4.17998 56.24 5.31998 51.98 8.65998 50.04C12 48.12 16.26 49.26 18.2 52.6C20.12 55.94 18.98 60.2 15.64 62.14C12.28 64.06 8.01998 62.92 6.09998 59.58Z" fill="#E535AB"/>
<path d="M61.8201 27.4C59.9001 24.06 61.0401 19.8 64.3801 17.86C67.7201 15.94 71.9801 17.08 73.9201 20.42C75.8401 23.76 74.7001 28.02 71.3601 29.96C68.0201 31.88 63.7401 30.74 61.8201 27.4Z" fill="#E535AB"/>
<path d="M40 79.16C36.14 79.16 33.02 76.04 33.02 72.18C33.02 68.32 36.14 65.2 40 65.2C43.86 65.2 46.98 68.32 46.98 72.18C46.98 76.02 43.86 79.16 40 79.16Z" fill="#E535AB"/>
<path d="M40 14.8C36.14 14.8 33.02 11.68 33.02 7.82C33.02 3.96 36.14 0.839996 40 0.839996C43.86 0.839996 46.98 3.96 46.98 7.82C46.98 11.68 43.86 14.8 40 14.8Z" fill="#E535AB"/>
</g>
<defs>
<clipPath id="clip0_5_1732">
<rect width="80" height="80" fill="white"/>
</clipPath>
</defs>
</svg>
