<svg width="80" height="80" viewBox="0 0 80 80" fill="none" xmlns="http://www.w3.org/2000/svg">
<g clip-path="url(#clip0_5_1619)">
<rect x="1.5" y="1.5" width="77" height="77" fill="#FFCA28"/>
<path d="M48.25 65.541L53.9192 61.7897C54.3635 63.1856 57.1769 66.5006 60.7308 66.5006C64.2846 66.5006 65.9346 64.5596 65.9346 63.2728C65.9346 59.766 62.3057 58.5296 60.5628 57.9357C60.2786 57.8389 60.0446 57.7592 59.8846 57.6895C59.8026 57.6538 59.6785 57.6063 59.5192 57.5455C57.5807 56.8049 50.4288 54.0725 50.4288 46.1521C50.4288 37.4282 58.8481 36.425 60.7519 36.425C61.9975 36.425 67.9865 36.5776 70.9692 42.1827L65.4692 46.0213C64.2635 43.5786 62.2601 42.7716 61.0269 42.7716C57.9808 42.7716 57.3462 45.0048 57.3462 46.0213C57.3462 48.8736 60.6557 50.1521 63.4502 51.2315C64.1813 51.514 64.8771 51.7828 65.4692 52.0626C68.5154 53.502 73 55.8574 73 63.2728C73 66.9869 69.8848 73 62.0423 73C51.5077 73 48.7154 66.6751 48.25 65.541Z" fill="#3E3E3E"/>
<path d="M20.75 66.286L26.6589 62.5366C27.1219 63.9317 28.921 66.5039 31.5315 66.5039C34.1419 66.5039 35.478 63.8227 35.478 62.5366V37.25H42.745V62.5366C42.8626 66.0244 40.9283 73 32.3913 73C24.5422 73 21.2792 68.335 20.75 66.286Z" fill="#3E3E3E"/>
</g>
<defs>
<clipPath id="clip0_5_1619">
<rect width="80" height="80" fill="white"/>
</clipPath>
</defs>
</svg>
