<svg width="80" height="80" viewBox="0 0 80 80" fill="none" xmlns="http://www.w3.org/2000/svg">
<g clip-path="url(#clip0_5_1608)">
<path d="M43.2976 1.46515C41.3013 0.342427 38.6988 0.347475 36.7007 1.46515C26.6937 6.98762 16.6867 12.5118 6.67794 18.0317C4.73038 19.0563 3.4168 21.1478 3.43775 23.3186V56.6859C3.42368 58.8991 4.805 61.0108 6.80279 62.0213C9.67763 63.5508 12.4707 65.2355 15.3975 66.6631C18.7783 68.3244 23.0081 68.6918 26.4302 66.9593C29.2081 65.5233 30.4419 62.3299 30.4384 59.395C30.4608 48.3829 30.4419 37.3705 30.447 26.3583C30.513 25.8689 30.1457 25.3458 29.6119 25.3576C28.333 25.3374 27.0524 25.3458 25.7736 25.3543C25.2903 25.3085 24.8187 25.7099 24.8552 26.1957C24.838 37.1368 24.8586 48.0814 24.8448 59.0242C24.8727 60.5379 23.8501 61.9927 22.3913 62.504C19.0221 63.6849 9.40556 57.441 9.40556 57.441C9.05265 57.2775 8.82855 56.8947 8.86314 56.5146C8.86314 45.5058 8.86486 34.4968 8.86314 23.4897C8.81464 23.046 9.08814 22.6463 9.49568 22.4651C19.4697 16.9752 29.4385 11.4715 39.4125 5.97821C39.7588 5.747 40.2419 5.74769 40.5875 5.97989C50.5615 11.4715 60.5321 16.9701 70.5078 22.4604C70.9168 22.6413 71.1785 23.0477 71.1369 23.4897C71.1352 34.4968 71.1403 45.5058 71.1334 56.5129C71.163 56.9025 70.9618 57.28 70.5979 57.4511C60.717 62.9112 50.7237 68.1952 40.9323 73.814C40.5051 74.0591 40.0212 74.3368 39.5425 74.0667C36.9676 72.6425 34.4239 71.1627 31.8576 69.7248C31.5787 69.5506 31.2234 69.476 30.9323 69.6706C29.7815 70.277 28.6995 70.7682 27.3782 71.2912C25.5223 72.0258 25.8189 72.3263 27.4924 73.3013C30.4938 74.9999 33.5001 76.6916 36.5012 78.3919C38.4769 79.6248 41.1316 79.7126 43.171 78.5731C53.1798 73.0576 63.1851 67.5354 73.1955 62.0199C75.1881 61.0038 76.5763 58.9005 76.5623 56.6857V23.3186C76.5815 21.1918 75.3182 19.1376 73.4294 18.0979C63.3877 12.5485 53.3411 7.01118 43.2976 1.46515Z" fill="#8CC84B"/>
<path d="M58.399 26.5176C54.4708 24.416 49.7976 24.3041 45.4324 24.5787C42.2788 24.8903 38.962 25.7606 36.6643 28.0212C34.3077 30.2938 33.7949 33.9634 34.9142 36.9302C35.7163 39.0265 37.7353 40.3898 39.8233 41.1109C42.513 42.0604 45.3378 42.354 48.1636 42.6476C50.741 42.9155 53.3192 43.1835 55.7965 43.9493C56.8084 44.2847 57.9868 44.7977 58.2968 45.8985C58.5829 47.2024 58.2692 48.7181 57.2105 49.624C53.8478 52.2856 44.4941 51.8777 41.1716 49.783C39.8284 48.8906 39.2496 47.3107 39.0142 45.8054C38.9881 45.3362 38.6104 44.9059 38.101 44.9416C36.8256 44.9264 35.5501 44.9298 34.2747 44.9399C33.8296 44.9026 33.3669 45.2192 33.3425 45.6733C33.0805 52.5686 39.4132 55.5746 45.3546 56.2366C48.7492 56.56 52.2182 56.5415 55.5608 55.8131C58.0735 55.2409 60.5928 54.1875 62.3225 52.252C64.4555 49.9 64.8748 46.398 63.9182 43.4683C63.187 41.2823 61.097 39.8799 58.9606 39.1586C56.0554 38.1624 52.6123 37.627 49.981 37.3763C46.1562 37.012 41.6112 37.1608 40.5287 34.6475C40.0971 33.3316 40.4644 31.6975 41.6738 30.8881C44.8736 28.7176 51.3857 29.0059 54.6996 30.6273C56.2212 31.3893 57.1029 32.954 57.4668 34.5339C57.5342 34.9981 57.8465 35.4822 58.3837 35.462C59.6503 35.4872 60.9171 35.4687 62.1836 35.4704C62.6187 35.501 63.0951 35.2553 63.1801 34.8099C63.1264 31.5079 61.4403 28.128 58.399 26.5176Z" fill="#8CC84B"/>
</g>
<defs>
<clipPath id="clip0_5_1608">
<rect width="80" height="80" fill="white"/>
</clipPath>
</defs>
</svg>
