<svg width="80" height="80" viewBox="0 0 80 80" fill="none" xmlns="http://www.w3.org/2000/svg">
<g clip-path="url(#clip0_5_1657)">
<path d="M5.5 58V8L9 5.5L56.5 2L75.5 15.5L76.5 47.5L74.5 73L19 75.5L5.5 58Z" fill="white"/>
<path fill-rule="evenodd" clip-rule="evenodd" d="M15.8039 14.059C18.2484 16.045 19.1654 15.8935 23.7559 15.5872L67.0312 12.9887C67.949 12.9887 67.1858 12.0731 66.8797 11.921L59.6926 6.72522C58.3155 5.65604 56.4808 4.43164 52.9643 4.73793L11.0607 7.79424C9.53251 7.94576 9.2273 8.70988 9.83587 9.32232L15.8039 14.059ZM18.4021 24.1443V69.6776C18.4021 72.1247 19.625 73.0402 22.3773 72.8888L69.9369 70.1368C72.6906 69.9854 72.9974 68.3022 72.9974 66.3143V21.0866C72.9974 19.102 72.2339 18.0317 70.5483 18.1845L20.848 21.0866C19.0138 21.2408 18.4021 22.1583 18.4021 24.1443ZM65.3528 26.5868C65.6578 27.9634 65.3528 29.3387 63.9737 29.4935L61.6823 29.95V63.5656C59.6926 64.6349 57.858 65.2462 56.3291 65.2462C53.8814 65.2462 53.2683 64.4817 51.4349 62.191L36.4457 38.6599V61.4269L41.1889 62.4972C41.1889 62.4972 41.1889 65.2462 37.3621 65.2462L26.8126 65.8582C26.5062 65.2462 26.8126 63.7196 27.8827 63.4137L30.6357 62.6507V32.5484L26.8134 32.2421C26.5068 30.8655 27.2703 28.8807 29.4128 28.7267L40.73 27.9638L56.3291 51.8012V30.714L52.3519 30.2576C52.0467 28.5747 53.2683 27.3528 54.7978 27.2013L65.3528 26.5868ZM7.54244 3.66891L51.1289 0.459069C56.4814 1.21109e-05 57.8586 0.307545 61.2227 2.75126L75.1361 12.5303C77.4318 14.2119 78.197 14.6697 78.197 16.5029V70.1368C78.197 73.4981 76.9724 75.486 72.6914 75.7902L22.0744 78.8468C18.8607 79 17.3312 78.542 15.6482 76.4015L5.40224 63.1079C3.56648 60.6608 2.80298 58.8301 2.80298 56.6884V9.01494C2.80298 6.26616 4.02785 3.9732 7.54244 3.66891Z" fill="black"/>
</g>
<defs>
<clipPath id="clip0_5_1657">
<rect width="80" height="80" fill="white"/>
</clipPath>
</defs>
</svg>
