<svg width="80" height="80" viewBox="0 0 80 80" fill="none" xmlns="http://www.w3.org/2000/svg">
<g clip-path="url(#clip0_5_1667)">
<path fill-rule="evenodd" clip-rule="evenodd" d="M20.6303 51.28V59.3699L1.23694 39.9706L5.29656 35.9404L20.6303 51.28ZM28.7202 59.3699H20.6303L40.0237 78.7633L44.0774 74.7213L28.7202 59.3699ZM74.7214 44.0362L78.7634 40L40.0119 1.2309L35.9699 5.2729L51.2802 20.6125H42.0212L31.3287 9.93177L27.2867 13.9738L33.9431 20.6301H29.3077V50.7101H59.3877V46.0513L66.0441 52.7076L70.0919 48.6657L59.3877 37.9673V28.7083L74.7214 44.0362ZM22.6513 18.5915L18.6093 22.6335L22.9509 26.9751L26.9929 22.9214L22.6513 18.5915ZM57.0788 53.0073L53.0427 57.0493L57.3843 61.3909L61.4263 57.3372L57.0788 53.0073ZM13.9739 27.2689L9.92019 31.3168L20.6244 42.0093V33.9253L13.9798 27.2689H13.9739ZM46.0749 59.3699H37.9851L48.6834 70.0683L52.7313 66.0204L46.0749 59.3699Z" fill="#FF6363"/>
</g>
<defs>
<clipPath id="clip0_5_1667">
<rect width="80" height="80" fill="white"/>
</clipPath>
</defs>
</svg>
