<svg width="80" height="80" viewBox="0 0 80 80" fill="none" xmlns="http://www.w3.org/2000/svg">
<g clip-path="url(#clip0_1_1359)">
<path d="M47.0321 38.9367C47.0321 35.1714 43.8839 32.1186 40 32.1186C36.1165 32.1186 32.9679 35.1714 32.9679 38.9367C32.9679 42.7025 36.1165 45.7552 40 45.7552C43.8839 45.7552 47.0321 42.7025 47.0321 38.9367Z" fill="#53C1DE"/>
<path fill-rule="evenodd" clip-rule="evenodd" d="M62.8385 26.2785C64.3236 20.4276 66.1902 9.57764 59.6098 5.89917C53.0602 2.23674 44.5372 9.25462 40.0366 13.4671C35.5491 9.2966 26.7867 2.30871 20.2118 5.99886C13.6647 9.67357 15.6837 20.3436 17.2016 26.2312C11.0943 27.9131 0.625 31.5356 0.625 38.9368C0.625 46.317 11.0834 50.2581 17.1546 51.9384C15.631 57.8585 13.7131 68.3762 20.2686 72.0426C26.8678 75.7321 35.6032 68.9106 40.1453 64.6521C44.6748 68.8893 53.1161 75.7554 59.6669 72.0787C66.2386 68.3903 64.5269 57.6858 63.0089 51.764C68.8941 50.0801 79.375 46.2248 79.375 38.9368C79.375 31.6066 68.8496 27.9547 62.8385 26.2785ZM62.0926 48.6258C61.0959 45.5666 59.7506 42.3135 58.1049 38.953C59.6757 35.6718 60.9687 32.4606 61.9375 29.4211C66.3442 30.6598 76.0111 33.4909 76.0111 38.9368C76.0111 44.4337 66.7347 47.2916 62.0926 48.6258ZM57.9811 69.2558C53.0936 71.9989 45.8331 65.4328 42.4881 62.3123C44.7071 59.9591 46.9247 57.2233 49.089 54.1855C52.8963 53.858 56.493 53.3225 59.7548 52.5915C60.8232 56.7802 62.8906 66.5002 57.9811 69.2558ZM21.9495 69.2166C17.0612 66.4838 19.2955 57.0984 20.4164 52.7375C23.6419 53.4292 27.2125 53.927 31.0288 54.227C33.2074 57.1997 35.4891 59.9321 37.7886 62.3248C34.9476 64.9895 26.8606 71.9621 21.9495 69.2166ZM3.98891 38.9368C3.98891 33.4192 13.5979 30.6087 18.105 29.3731C19.0906 32.4809 20.3833 35.7303 21.9432 39.0162C20.363 42.351 19.0519 45.6521 18.0572 48.7964C13.7597 47.6038 3.98891 44.4578 3.98891 38.9368ZM21.8972 8.8218C26.8055 6.06718 34.4211 12.7758 37.6792 15.7953C35.3915 18.1773 33.1307 20.8891 30.9709 23.8445C27.2672 24.1773 23.7217 24.7119 20.4624 25.4279C19.2395 20.6794 16.9943 11.5734 21.8972 8.8218ZM51.4956 27.3899C54.0084 27.6974 56.4156 28.1062 58.6761 28.6067C57.9975 30.7156 57.1517 32.9209 56.1556 35.1815C54.7115 32.5248 53.1614 29.9217 51.4956 27.3899ZM40.0376 18.1263C41.5892 19.756 43.1433 21.576 44.6719 23.5505C41.5711 23.4084 38.4652 23.4077 35.3643 23.5485C36.8943 21.5923 38.4616 19.775 40.0376 18.1263ZM23.8733 35.1791C22.8936 32.9263 22.0554 30.7112 21.371 28.5722C23.6179 28.0846 26.0139 27.6862 28.5104 27.3838C26.8399 29.91 25.2924 32.5122 23.8733 35.1791ZM28.5822 50.7225C26.0031 50.4434 23.5708 50.0653 21.3246 49.5912C22.0199 47.4144 22.8766 45.1517 23.8772 42.8505C25.3158 45.5449 26.8868 48.1724 28.5822 50.7225ZM40.1307 59.9777C38.5362 58.3094 36.9459 56.4644 35.3926 54.4798C38.5112 54.5986 41.6358 54.5989 44.7538 54.4639C43.2203 56.4847 41.6718 58.3324 40.1307 59.9777ZM56.1877 42.7332C57.2402 45.0594 58.1275 47.3099 58.8322 49.4499C56.5487 49.9551 54.0837 50.362 51.4861 50.6641C53.1644 48.0844 54.739 45.4407 56.1877 42.7332ZM47.2116 51.0594C42.4416 51.3899 37.6416 51.3864 32.87 51.0865C30.1586 47.2463 27.745 43.2078 25.6616 39.0151C27.7348 34.8312 30.1309 30.8006 32.8296 26.9665C37.6048 26.6165 42.4093 26.6156 47.1844 26.9685C49.8597 30.8024 52.2522 34.8225 54.3736 38.9689C52.2773 43.1508 49.8688 47.1895 47.2116 51.0594ZM57.9296 8.72481C62.8391 11.4704 60.6537 21.2216 59.5812 25.4617C56.3142 24.7308 52.7663 24.1868 49.0517 23.8489C46.8878 20.8614 44.6458 18.1449 42.395 15.7937C45.695 12.7091 53.0675 6.00608 57.9296 8.72481Z" fill="#53C1DE"/>
</g>
<defs>
<clipPath id="clip0_1_1359">
<rect width="80" height="80" fill="white"/>
</clipPath>
</defs>
</svg>
