<svg width="80" height="80" viewBox="0 0 80 80" fill="none" xmlns="http://www.w3.org/2000/svg">
<g clip-path="url(#clip0_5_1473)">
<path fill-rule="evenodd" clip-rule="evenodd" d="M33.5632 26.918C33.5187 26.918 33.4326 26.918 33.3881 26.918C32.6492 26.8279 32.041 26.1508 32.041 25.3837C31.9965 24.6614 31.6047 7.78215 41.1265 3.94613C43.5181 2.99827 45.7376 3.17869 47.607 4.57804C49.9096 6.24786 51.5623 9.58751 52.5622 14.4617C53.2565 17.8917 53.3871 20.8703 53.3871 21.0058C53.4316 21.7278 52.8679 22.2696 52.1261 22.1341C51.3873 22.0437 50.779 21.3669 50.779 20.6447C50.6485 17.5758 49.6485 9.13632 46.346 6.69906C45.3015 5.93191 43.9958 5.84155 42.4321 6.47346C34.2574 9.76793 34.6491 25.6093 34.6491 25.7897C34.6491 26.4216 34.216 26.918 33.5632 26.918Z" fill="#595961"/>
<path opacity="0.46" fill-rule="evenodd" clip-rule="evenodd" d="M47.1268 4.66812C45.388 3.40431 43.3465 3.22389 41.127 4.08139C37.2577 5.66086 34.5191 9.81314 33.1719 16.1316C32.172 20.7799 32.3025 24.9774 32.3025 25.1578C32.3025 25.3834 32.3885 25.6093 32.5636 25.7897C32.7357 25.9701 32.9108 26.1057 33.1274 26.1057C33.1719 26.1057 33.2164 26.1057 33.258 26.1057C33.6496 26.1057 33.9552 25.7897 33.9552 25.3834C33.9552 25.203 33.5637 9.09087 41.955 5.70604C43.6493 5.02926 45.1269 5.11931 46.3465 6.02199C49.8656 8.5945 50.91 17.3051 51.0405 20.4191C51.0405 20.8703 51.4323 21.3218 51.91 21.3667C52.3462 21.4118 52.6933 21.0959 52.6933 20.6447C52.6488 20.1032 52.1711 8.3689 47.1268 4.66812Z" fill="#B2B2C2"/>
<path opacity="0.46" fill-rule="evenodd" clip-rule="evenodd" d="M33.1745 25.564C33.13 25.564 33.13 25.564 33.0884 25.564C32.8273 25.5189 32.6077 25.2481 32.5661 24.9773C32.5661 24.7966 32.4357 20.6898 33.4356 16.0412C34.7382 9.85824 37.4798 5.75114 41.2601 4.21656C43.3906 3.35906 45.3046 3.53977 46.9573 4.71323C51.8265 8.27847 52.3043 19.8323 52.3043 20.3287C52.3043 20.5994 52.0876 20.7799 51.8265 20.735C51.5654 20.6898 51.3487 20.4642 51.3042 20.1483C51.3042 20.0127 50.8265 8.68478 46.435 5.43519C45.1294 4.48763 43.5212 4.3521 41.6964 5.07406C33.1745 8.6396 33.5662 24.9773 33.5662 25.1577C33.6077 25.3833 33.4356 25.564 33.1745 25.564Z" fill="#B2B2C2"/>
<path opacity="0.62" fill-rule="evenodd" clip-rule="evenodd" d="M36.6967 12.6566C37.0439 11.9799 37.391 11.3028 37.6966 10.5808C37.566 10.8064 36.6966 13.1533 34.0439 12.7922C33.9994 12.7922 35.6077 13.2886 36.6967 12.6566Z" fill="#595961"/>
<path opacity="0.62" fill-rule="evenodd" clip-rule="evenodd" d="M35.7372 15.5446C35.9983 14.8224 36.2594 14.0552 36.4344 13.3333C36.3484 13.604 35.9122 16.041 33.1289 16.041C33.1289 16.041 34.7372 16.357 35.7372 15.5446Z" fill="#595961"/>
<path opacity="0.62" fill-rule="evenodd" clip-rule="evenodd" d="M51.0002 9.72314C50.6531 8.91052 50.2613 8.14338 49.8696 7.33105C50.0002 7.60183 51.3058 10.1743 49.8281 12.0246C49.8281 12.0246 50.9587 11.1222 51.0002 9.72314Z" fill="#595961"/>
<path opacity="0.62" fill-rule="evenodd" clip-rule="evenodd" d="M48.6125 5.66127C47.9152 5.07454 47.2207 4.53299 46.5234 4.03662C46.7846 4.26222 49.09 5.93205 48.9595 8.45967C48.915 8.45967 49.3068 6.97026 48.6125 5.66127Z" fill="#595961"/>
<path opacity="0.62" fill-rule="evenodd" clip-rule="evenodd" d="M37.9594 10.1738C38.4816 9.63221 38.9147 9.04548 39.3925 8.41357C39.2204 8.59399 37.7844 10.4445 35.2207 9.76745C35.2207 9.76745 36.6983 10.5801 37.9594 10.1738Z" fill="#595961"/>
<path opacity="0.62" fill-rule="evenodd" clip-rule="evenodd" d="M39.5652 8.09803C40.1735 7.64683 40.7373 7.19535 41.304 6.69897C41.0874 6.83451 39.3042 8.32362 36.8265 7.24052C36.8265 7.24052 38.2596 8.27844 39.5652 8.09803Z" fill="#595961"/>
<path opacity="0.62" fill-rule="evenodd" clip-rule="evenodd" d="M41.9148 6.60808C42.6537 6.38249 43.351 6.11171 44.0454 5.84094C43.7842 5.931 41.5676 6.74332 39.3926 5.02832C39.4371 5.02832 40.5677 6.38249 41.9148 6.60808Z" fill="#595961"/>
<path opacity="0.62" fill-rule="evenodd" clip-rule="evenodd" d="M44.0422 5.79656C44.6505 5.88692 45.2587 5.9321 45.867 5.97728C45.6504 5.9321 43.7364 5.79657 42.6504 3.99121C42.6504 3.99121 43.0867 5.20983 44.0422 5.79656Z" fill="#595961"/>
<path opacity="0.62" fill-rule="evenodd" clip-rule="evenodd" d="M46.5653 6.78848C46.9985 7.28515 47.4791 7.78152 47.9984 8.23272C47.8263 8.0523 46.3487 6.56289 46.6959 4.71265C46.6514 4.71265 46.1736 5.75056 46.5653 6.78848Z" fill="#595961"/>
<path opacity="0.74" fill-rule="evenodd" clip-rule="evenodd" d="M51.8265 20.1031C51.8265 19.6064 51.3488 8.18814 46.6101 4.71325C45.6962 4.03617 44.6962 3.72021 43.6518 3.72021C42.8684 3.72021 42.0435 3.90063 41.1741 4.26176C37.3909 5.75117 34.7382 9.76791 33.4356 15.9057C32.4357 20.5091 32.5661 24.6162 32.5661 24.7966C32.5661 24.9322 32.6967 25.0674 32.8273 25.0674H32.8688C32.9993 25.0674 33.0884 24.9773 33.0884 24.8418C33.0884 24.6614 32.6522 8.18814 41.3907 4.66807C43.3045 3.90063 44.9573 4.03617 46.349 5.07409C50.8681 8.36885 51.3487 19.8775 51.3487 20.0127C51.3487 20.1483 51.4793 20.2835 51.6099 20.2835C51.6099 20.2835 51.6098 20.2835 51.6514 20.2835C51.7404 20.3287 51.8265 20.2383 51.8265 20.1031Z" fill="url(#paint0_linear_5_1473)"/>
<path fill-rule="evenodd" clip-rule="evenodd" d="M52.5675 14.4621C51.5675 9.58785 49.9148 6.29309 47.6123 4.57808C46.3512 3.6757 45.0011 3.26938 43.5234 3.35974C44.6985 3.4498 45.7845 3.85612 46.7844 4.57808C49.09 6.2482 50.7428 9.58785 51.7427 14.4621C52.437 17.8921 52.5675 20.8706 52.5675 21.0061C52.5675 21.5477 52.3064 21.954 51.8702 22.0892C51.9592 22.1344 52.0454 22.1344 52.0899 22.1344C52.8287 22.2248 53.3925 21.7281 53.3509 21.0061C53.3925 20.8706 53.2618 17.9373 52.5675 14.4621Z" fill="url(#paint1_linear_5_1473)"/>
<path fill-rule="evenodd" clip-rule="evenodd" d="M41.6093 6.4736C33.4346 9.76807 33.8262 25.6094 33.8262 25.7898C33.8262 26.3314 33.5651 26.7377 33.1289 26.8729C33.2179 26.9181 33.2596 26.9181 33.3486 26.9181C33.3901 26.9181 33.4791 26.9181 33.5206 26.9181C34.1734 26.9181 34.6065 26.4217 34.6065 25.7898C34.6065 25.6094 34.218 9.81325 42.3897 6.51878C42.9565 6.29318 43.4786 6.15765 43.9563 6.11247C43.259 5.97723 42.4787 6.11247 41.6093 6.4736Z" fill="url(#paint2_linear_5_1473)"/>
<path fill-rule="evenodd" clip-rule="evenodd" d="M53.9981 10.3995L17.1304 22.2238C17.1304 22.2238 15.5666 22.6753 15.175 23.1717C14.7833 23.6681 14.6972 25.0671 14.6972 25.0671L9 70.6502L51.7816 78.9545L55.0871 10.3543C54.6094 10.264 54.1287 10.3543 53.9981 10.3995Z" fill="url(#paint3_linear_5_1473)"/>
<path fill-rule="evenodd" clip-rule="evenodd" d="M66.7376 16.2666C66.7376 16.2666 66.6931 15.9055 66.4764 15.7703C66.3014 15.6347 66.0847 15.6347 66.0847 15.6347L60.0405 15.1835L55.6074 10.6253C55.4323 10.4897 55.2573 10.3997 55.0407 10.3545L51.7383 78.9546L74.9092 73.7644L66.7376 16.2666Z" fill="url(#paint4_linear_5_1473)"/>
<path fill-rule="evenodd" clip-rule="evenodd" d="M38.783 48.4904C38.1302 47.5878 37.3498 46.7754 36.5664 46.0532C35.7831 45.3312 34.9582 44.7445 34.1304 44.2029C33.5666 43.8418 33.0444 43.4807 32.6082 43.1195C32.175 42.7587 31.8277 42.3976 31.5666 42.0816C31.3055 41.7205 31.0889 41.4045 30.9583 41.0437C30.8277 40.6826 30.7832 40.3214 30.7832 39.9603C30.7832 39.4639 30.9138 38.9676 31.0889 38.5613C31.261 38.1552 31.5666 37.7941 31.8693 37.4782C32.2194 37.1622 32.6081 36.9366 33.0888 36.7562C33.5665 36.5755 34.1302 36.4854 34.7385 36.4402C35.3913 36.3951 36.0441 36.4402 36.6524 36.4854C37.2607 36.5303 37.8274 36.6658 38.3912 36.8011C38.9135 36.9366 39.4356 37.117 39.8689 37.2978C40.305 37.4782 40.7382 37.6586 41.0439 37.8393L43.9133 28.9935C43.4801 28.7679 42.9579 28.542 42.3911 28.4068C41.7828 28.2261 41.13 28.0908 40.3912 28.0005C39.6523 27.9104 38.8689 27.8652 38.044 27.8652C37.2192 27.8652 36.3499 27.9104 35.4359 28.0457C33.4805 28.3164 31.7387 28.858 30.175 29.6703C28.6973 30.4377 27.3917 31.4305 26.3057 32.6491C25.2612 33.8226 24.4363 35.1764 23.828 36.711C23.2613 38.2004 22.9142 39.8703 22.8281 41.6753C22.7836 42.7587 22.8696 43.7515 23.1307 44.6541C23.3474 45.5568 23.6975 46.4143 24.1752 47.2266C24.6084 48.039 25.1751 48.7612 25.7834 49.438C26.3917 50.1151 27.1305 50.747 27.8694 51.3337C28.4776 51.7849 28.9999 52.2361 29.4361 52.6424C29.8693 53.0487 30.2195 53.4547 30.4776 53.9062C30.7388 54.3122 30.9138 54.7185 31.0443 55.1697C31.1749 55.5761 31.2194 56.0272 31.1749 56.4787C31.1749 56.9299 31.0444 57.3811 30.8694 57.7422C30.6973 58.1034 30.4776 58.4645 30.1305 58.7353C29.8278 59.0061 29.4362 59.1865 29 59.2768C28.5668 59.3669 28.0446 59.4121 27.4778 59.322C26.828 59.2317 26.1751 59.0512 25.5668 58.7802C24.9585 58.5546 24.3474 58.2386 23.7836 57.9227C23.2199 57.607 22.6976 57.2459 22.2614 56.9299C21.7837 56.614 21.392 56.2528 21.0893 55.9821L19.1309 62.7068C19.4365 63.158 19.8698 63.5643 20.3475 63.9704C20.8282 64.3767 21.3921 64.7827 22.0448 65.189C22.6976 65.5501 23.392 65.9109 24.1308 66.2269C24.8697 66.5429 25.6974 66.8136 26.5223 67.0395H26.5669H26.6083H26.6529H26.6974C28.4778 67.4455 30.175 67.5359 31.7832 67.3103C33.436 67.0844 34.9581 66.4977 36.2607 65.5953C37.6078 64.6474 38.6968 63.3836 39.5217 61.7138C40.3495 60.044 40.8272 58.013 40.9133 55.7113C40.9578 54.2671 40.7828 53.0035 40.3912 51.8301C39.9995 50.4762 39.4357 49.438 38.783 48.4904Z" fill="url(#paint5_linear_5_1473)"/>
<path opacity="0.226763" fill-rule="evenodd" clip-rule="evenodd" d="M19.4125 63.0745C19.3116 62.9549 19.2165 62.8327 19.1305 62.7072L21.0889 55.9824C21.1156 56.0075 21.1453 56.0335 21.175 56.06C21.4658 56.3199 21.8278 56.6435 22.2611 56.9302C22.6972 57.2462 23.2195 57.6073 23.7832 57.9233C24.347 58.2389 24.9581 58.5549 25.5664 58.7808C26.1747 59.0516 26.8276 59.232 27.4774 59.3223C28.0442 59.4124 28.5664 59.3675 28.9996 59.2772C29.4358 59.1868 29.8274 59.0064 30.1301 58.7356C30.4772 58.4648 30.6969 58.1037 30.869 57.7426C31.0441 57.3814 31.1745 56.9302 31.1745 56.479C31.219 56.0276 31.1745 55.5764 31.0439 55.1701C30.9134 54.7189 30.7384 54.3126 30.4773 53.9066C30.231 53.4775 29.9045 53.0895 29.498 52.7033C29.7117 52.9445 29.8927 53.1923 30.0441 53.4551C30.3052 53.8614 30.4773 54.2674 30.6078 54.7189C30.7384 55.1249 30.7829 55.5764 30.7384 56.0276C30.7384 56.4791 30.6079 56.9302 30.4358 57.2914C30.2607 57.6525 30.044 58.0133 29.6969 58.2841C29.3912 58.5549 28.9996 58.7356 28.5664 58.8257C28.1302 58.916 27.608 58.9612 27.0442 58.8708C26.3914 58.7808 25.7386 58.6001 25.1303 58.3293C24.522 58.1037 23.9137 57.7877 23.347 57.4718C22.7832 57.1558 22.2611 56.795 21.8279 56.479C21.3917 56.1923 21.0297 55.8687 20.7389 55.6089C20.7092 55.5823 20.6823 55.5563 20.6527 55.5312L18.6973 62.2557C18.8901 62.543 19.1365 62.812 19.4125 63.0745ZM25.8187 49.4794C25.6555 49.3178 25.4982 49.154 25.3469 48.9871C24.7386 48.3101 24.1749 47.5881 23.7387 46.7758C23.261 45.9631 22.9138 45.1056 22.6972 44.2033C22.436 43.3006 22.3469 42.3075 22.3915 41.2244C22.4775 39.4191 22.8277 37.7493 23.3915 36.2599C23.9998 34.7256 24.8277 33.3717 25.8692 32.1982C26.9582 30.9796 28.2607 29.9866 29.7383 29.2194C31.305 28.4071 33.0439 27.8655 34.9993 27.5948C35.9132 27.4592 36.7827 27.4141 37.6075 27.4141C38.4354 27.4141 39.2187 27.4592 39.9576 27.5496C40.6964 27.6399 41.3492 27.7752 41.9575 27.9559C42.5213 28.0911 43.0435 28.3167 43.4797 28.5423L43.4114 28.7535C43.0969 28.6167 42.7527 28.4936 42.3907 28.4071C41.7824 28.2267 41.1296 28.0911 40.3908 28.0008C39.6519 27.9107 38.8685 27.8656 38.0437 27.8656C37.2188 27.8656 36.3495 27.9107 35.4356 28.046C33.4802 28.3167 31.7384 28.8583 30.1746 29.6709C28.6969 30.4381 27.3913 31.4308 26.3053 32.6494C25.2609 33.8229 24.4359 35.1767 23.8276 36.7113C23.2609 38.2007 22.9138 39.8706 22.8277 41.6756C22.7832 42.759 22.8692 43.7518 23.1304 44.6544C23.347 45.5571 23.6971 46.4146 24.1748 47.227C24.608 48.0393 25.1747 48.7615 25.783 49.4383C25.7949 49.4519 25.8068 49.4658 25.8187 49.4794ZM31.7234 42.2668C31.9608 42.5352 32.2576 42.8275 32.6078 43.1199C33.044 43.481 33.5662 43.8421 34.13 44.2033C34.9578 44.7448 35.7827 45.3315 36.566 46.0535C36.7945 46.2637 37.02 46.4814 37.2455 46.707C36.8835 46.3178 36.5066 45.9496 36.1297 45.6023C35.3494 44.88 34.5217 44.2933 33.6968 43.7518C33.13 43.3906 32.6078 43.0298 32.1746 42.6687C32.0114 42.534 31.8629 42.3994 31.7234 42.2668Z" fill="black"/>
<path opacity="0.41" fill-rule="evenodd" clip-rule="evenodd" d="M61.5177 66.1827L60.04 15.1838L59.7789 14.913L60.4763 65.4604C60.4763 65.4604 54.346 75.1185 53.4321 74.8477C52.0849 74.4417 56.0847 11.1219 56.0847 11.1219L55.6486 10.6707C55.4765 10.5351 55.2569 10.4451 55.0848 10.3999L51.8238 78.0522L51.7793 79L52.9098 77.5106L61.5177 66.1827Z" fill="url(#paint6_linear_5_1473)"/>
<path fill-rule="evenodd" clip-rule="evenodd" d="M44.8694 13.3336C44.3501 15.4546 43.6974 17.4404 43.2197 18.659C42.914 19.3813 43.2612 20.0581 43.914 20.1484C44.6113 20.2388 45.3917 19.7421 45.6528 19.0201C45.6973 18.8846 46.8693 15.9513 47.6111 12.4761V12.4309L44.8694 13.3336Z" fill="url(#paint7_linear_5_1473)"/>
<path fill-rule="evenodd" clip-rule="evenodd" d="M25.2601 19.6515C24.6518 21.0054 24.0435 22.1788 23.6073 22.9911C23.2186 23.6682 23.4352 24.3902 24.0879 24.5706C24.7378 24.7965 25.6071 24.3902 25.9988 23.7131C26.0433 23.6231 27.3045 21.4117 28.435 18.6133L25.2601 19.6515Z" fill="url(#paint8_linear_5_1473)"/>
<path opacity="0.32" fill-rule="evenodd" clip-rule="evenodd" d="M51.7793 78.9543L61.5177 66.1819L74.9979 73.7642L51.7793 78.9543Z" fill="url(#paint9_linear_5_1473)"/>
<path opacity="0.19" fill-rule="evenodd" clip-rule="evenodd" d="M51.7793 78.9543L61.4317 66.1819L74.9979 73.7642L51.7793 78.9543Z" fill="url(#paint10_linear_5_1473)"/>
<path opacity="0.19" fill-rule="evenodd" clip-rule="evenodd" d="M51.7793 78.9543L61.4317 66.1819L74.9979 73.7642L51.7793 78.9543Z" fill="url(#paint11_linear_5_1473)"/>
<path opacity="0.6" fill-rule="evenodd" clip-rule="evenodd" d="M42.3051 43.2105C47.3494 50.2961 50.7408 57.9685 52.4351 65.4152L55.0879 10.3095C54.6102 10.2195 54.1295 10.3095 53.9989 10.3547L17.1311 22.2245C17.1311 22.2245 16.7838 22.3145 16.3477 22.4953C25.6974 25.8349 35.0443 33.0109 42.3051 43.2105Z" fill="url(#paint12_linear_5_1473)"/>
<path fill-rule="evenodd" clip-rule="evenodd" d="M66.5184 15.8155C66.738 15.9962 66.7381 16.2669 66.7381 16.2669L74.8237 73.7192L61.5187 66.1373L60.041 15.1387L65.9992 15.5899C66.0407 15.635 66.3018 15.635 66.5184 15.8155Z" fill="url(#paint13_linear_5_1473)"/>
<path fill-rule="evenodd" clip-rule="evenodd" d="M65.5654 15.9515C65.5654 15.9515 65.8266 15.9515 66.0432 16.1771C66.2598 16.3578 66.3041 16.6285 66.3041 16.6285L74.2623 73.4492L74.8706 73.8104L66.7819 16.3126C66.7819 16.3126 66.7404 16.0418 66.5653 15.8614C66.3487 15.6807 66.0432 15.6807 66.0432 15.6807L60.0879 15.2295L65.5654 15.9515Z" fill="url(#paint14_linear_5_1473)"/>
<path fill-rule="evenodd" clip-rule="evenodd" d="M9 70.6496L51.7816 78.9539L53.8705 31.9265L14.3201 33.0508L9 70.6496Z" fill="url(#paint15_linear_5_1473)"/>
<path opacity="0.3" fill-rule="evenodd" clip-rule="evenodd" d="M23.0444 22.8815C22.6557 23.9784 23.0384 25.1309 23.9049 25.4563C24.7683 25.7814 25.7832 25.156 26.1748 24.0594C26.5635 22.9627 26.1779 21.8099 25.3144 21.4848C24.4509 21.1594 23.4331 21.7848 23.0444 22.8815Z" fill="white"/>
<path opacity="0.89" fill-rule="evenodd" clip-rule="evenodd" d="M22.9971 22.361C22.6084 23.4577 22.9941 24.6105 23.8575 24.9356C24.721 25.261 25.7388 24.6356 26.1275 23.5389C26.5162 22.4419 26.1335 21.2891 25.2671 20.964C24.4036 20.6386 23.3888 21.264 22.9971 22.361Z" fill="black"/>
<path fill-rule="evenodd" clip-rule="evenodd" d="M60.0846 15.1835L55.6486 10.6253C55.4765 10.4897 55.2569 10.3997 55.0848 10.3545L51.7793 78.9546L61.5622 66.137L60.0846 15.1835Z" fill="url(#paint16_linear_5_1473)"/>
<path fill-rule="evenodd" clip-rule="evenodd" d="M53.9973 10.4004L17.1295 22.2247C17.1295 22.2247 15.5658 22.6762 15.1741 23.1726C15.1296 23.2178 15.1294 23.263 15.0879 23.3081L52.2585 12.657C52.5641 12.5666 53.3029 12.2959 53.2169 14.5072L50.9558 78.865L51.7392 79.0006L55.0417 10.4004C54.6085 10.2649 54.1278 10.3553 53.9973 10.4004Z" fill="url(#paint17_linear_5_1473)"/>
<path fill-rule="evenodd" clip-rule="evenodd" d="M53.9973 10.4004L17.1295 22.2247C17.1295 22.2247 15.5658 22.6762 15.1741 23.1726C15.1296 23.2178 15.1294 23.263 15.0879 23.3081L23.6958 20.8257L53.3029 11.3031C53.4335 11.2579 53.9113 11.1676 54.389 11.2579L51.128 78.865L51.7392 79.0006L55.0417 10.4004C54.6085 10.2649 54.1278 10.3553 53.9973 10.4004Z" fill="url(#paint18_linear_5_1473)"/>
<path opacity="0.32" fill-rule="evenodd" clip-rule="evenodd" d="M63.4766 67.2655L61.5181 66.1372L51.7383 78.9546L52.2575 78.819C52.2575 78.819 60.8683 67.3107 61.6487 66.9495C62.2155 66.7239 63.4766 67.2655 63.4766 67.2655Z" fill="url(#paint19_linear_5_1473)"/>
<path opacity="0.57" fill-rule="evenodd" clip-rule="evenodd" d="M51.7793 78.9546L61.5622 66.1372C61.5177 66.1824 55.3459 73.1776 51.7793 78.9546Z" fill="url(#paint20_linear_5_1473)"/>
<path opacity="0.46" fill-rule="evenodd" clip-rule="evenodd" d="M75.001 73.7642L61.5654 66.1819C61.5208 66.1819 63.0876 66.4527 75.001 73.7642Z" fill="url(#paint21_linear_5_1473)"/>
<path opacity="0.3" fill-rule="evenodd" clip-rule="evenodd" d="M42.9208 18.3814C42.5291 19.4783 42.9148 20.6311 43.7783 20.9565C44.6447 21.2819 45.6596 20.6565 46.0483 19.5598C46.4399 18.4629 46.0542 17.3101 45.1907 16.9847C44.3273 16.6596 43.3095 17.2847 42.9208 18.3814Z" fill="white"/>
<path opacity="0.89" fill-rule="evenodd" clip-rule="evenodd" d="M42.8721 17.8629C42.4834 18.9599 42.8692 20.1127 43.7327 20.4381C44.5961 20.7632 45.6138 20.1381 46.0025 19.0411C46.3912 17.9444 46.0084 16.7916 45.1449 16.4662C44.2785 16.1408 43.2637 16.7662 42.8721 17.8629Z" fill="black"/>
<path fill-rule="evenodd" clip-rule="evenodd" d="M24.5679 24.5713C24.5234 24.5713 24.4373 24.5713 24.3928 24.5713C23.6985 24.4812 23.2208 23.8041 23.3069 23.037C23.3929 22.3147 25.8705 5.43547 36.0451 1.59945C38.6088 0.651594 40.7837 0.832014 42.4365 2.23136C44.4364 3.90118 45.5224 7.24083 45.6975 12.1151C45.828 15.5451 45.4365 18.5236 45.4365 18.6591C45.3504 19.3811 44.6976 19.9229 44.0003 19.7874C43.306 19.697 42.7837 19.0203 42.9142 18.298C43.3059 15.2291 43.7391 6.78964 40.8283 4.35238C39.9144 3.58523 38.6534 3.49487 36.9591 4.12678C28.2207 7.42125 25.915 23.2626 25.915 23.3978C25.7399 24.0749 25.2207 24.5713 24.5679 24.5713Z" fill="#595961"/>
<path opacity="0.46" fill-rule="evenodd" clip-rule="evenodd" d="M41.9111 2.32117C40.3889 1.05765 38.389 0.877232 35.9975 1.73473C31.8671 3.3142 28.3893 7.46618 25.9977 13.7395C24.2174 18.3881 23.6062 22.5853 23.6062 22.766C23.5647 22.9916 23.6508 23.2172 23.7814 23.3979C23.9119 23.5783 24.0869 23.7138 24.3035 23.7138C24.345 23.7138 24.3896 23.7138 24.4341 23.7138C24.8257 23.7138 25.1728 23.3979 25.2173 22.9916C25.2589 22.8111 27.5645 6.69903 36.5641 3.3142C38.389 2.63712 39.8666 2.72748 40.911 3.63016C43.9969 6.20267 43.5638 14.9129 43.1721 18.027C43.1276 18.4785 43.4333 18.9296 43.8665 18.9748C44.3027 19.02 44.7358 18.7041 44.7803 18.2529C44.8248 17.7562 46.3471 6.02224 41.9111 2.32117Z" fill="#B2B2C2"/>
<path opacity="0.81" fill-rule="evenodd" clip-rule="evenodd" d="M24.3911 23.2174C24.3466 23.2174 24.3466 23.2174 24.3051 23.2174C24.044 23.1722 23.8688 22.9014 23.9133 22.6306C23.9579 22.4499 24.5217 18.3431 26.305 13.6945C28.6966 7.51156 32.0881 3.40446 36.1294 1.86988C38.435 1.01238 40.3044 1.19309 41.7375 2.36655C45.9985 5.93179 44.5208 17.4856 44.4347 17.982C44.3902 18.2528 44.1737 18.4332 43.8681 18.3883C43.6099 18.3431 43.4349 18.1175 43.4349 17.8016C43.4349 17.666 44.9125 6.3381 41.0877 3.08851C39.9572 2.23101 38.3906 2.14095 36.4797 2.86291C27.305 6.3381 24.9134 22.6306 24.9134 22.811C24.8689 23.0366 24.6522 23.2174 24.3911 23.2174Z" fill="#B2B2C2"/>
<path opacity="0.42" fill-rule="evenodd" clip-rule="evenodd" d="M30.1289 10.3092C30.6066 9.63245 31.0427 8.95537 31.4759 8.2334C31.3038 8.45899 30.0427 10.8059 27.4345 10.4448C27.39 10.4448 28.9123 10.9411 30.1289 10.3092Z" fill="#595961"/>
<path opacity="0.42" fill-rule="evenodd" clip-rule="evenodd" d="M28.6509 13.1972C29.0426 12.475 29.4341 11.7078 29.7368 10.9858C29.6062 11.2566 28.7368 13.6936 25.998 13.6936C25.998 13.6936 27.5204 14.0095 28.6509 13.1972Z" fill="#595961"/>
<path opacity="0.42" fill-rule="evenodd" clip-rule="evenodd" d="M27.5222 16.177C27.8693 15.4095 28.1305 14.6424 28.3916 13.8752C28.2611 14.146 27.7834 16.6282 24.9141 16.9441C24.9141 16.8989 26.4777 17.0797 27.5222 16.177Z" fill="#595961"/>
<path opacity="0.62" fill-rule="evenodd" clip-rule="evenodd" d="M44.9113 7.37572C44.6947 6.5631 44.478 5.79597 44.1724 4.98364C44.2585 5.25442 45.128 7.82692 43.3477 9.67716C43.3477 9.67716 44.6502 8.77477 44.9113 7.37572Z" fill="#595961"/>
<path opacity="0.62" fill-rule="evenodd" clip-rule="evenodd" d="M43.2185 3.31385C42.6102 2.72712 41.9989 2.18558 41.3906 1.68921C41.6102 1.91481 43.6517 3.58463 43.0879 6.11195C43.0434 6.11195 43.6962 4.62254 43.2185 3.31385Z" fill="#595961"/>
<path opacity="0.62" fill-rule="evenodd" clip-rule="evenodd" d="M45.347 11.5281C45.3025 10.7158 45.172 9.85827 45.0414 9.04565C45.0414 9.36161 45.4776 12.0245 43.3887 13.4687C43.3887 13.4687 44.8247 12.8368 45.347 11.5281Z" fill="#595961"/>
<path opacity="0.62" fill-rule="evenodd" clip-rule="evenodd" d="M45.5637 15.7707C45.6083 14.9584 45.6083 14.1009 45.5637 13.2886C45.5637 13.6045 45.6082 16.2674 43.3887 17.4857C43.3887 17.4408 44.911 16.9894 45.5637 15.7707Z" fill="#595961"/>
<path opacity="0.42" fill-rule="evenodd" clip-rule="evenodd" d="M26.5221 19.4709C26.7832 18.6586 26.9583 17.8463 27.1304 17.0789C27.0444 17.3496 26.6527 19.9221 24 20.554C24.0445 20.554 25.6082 20.5089 26.5221 19.4709Z" fill="#595961"/>
<path opacity="0.42" fill-rule="evenodd" clip-rule="evenodd" d="M31.7802 7.82634C32.3885 7.28479 32.9551 6.69807 33.4774 6.06616C33.2578 6.24658 31.5191 8.09712 29.0859 7.42003C29.1275 7.42003 30.4747 8.23265 31.7802 7.82634Z" fill="#595961"/>
<path opacity="0.42" fill-rule="evenodd" clip-rule="evenodd" d="M33.7356 5.75135C34.4329 5.30015 35.0857 4.84867 35.7355 4.35229C35.4774 4.48783 33.4774 5.97694 31.1719 4.89384C31.1719 4.89384 32.3885 5.93177 33.7356 5.75135Z" fill="#595961"/>
<path opacity="0.62" fill-rule="evenodd" clip-rule="evenodd" d="M36.3918 4.26214C37.1751 4.03624 37.914 3.76547 38.6529 3.4947C38.3918 3.58505 36.0447 4.39738 34.1309 2.68237C34.1309 2.68237 35.0447 4.03624 36.3918 4.26214Z" fill="#595961"/>
<path opacity="0.62" fill-rule="evenodd" clip-rule="evenodd" d="M38.6095 3.44988C39.2208 3.54024 39.8291 3.58543 40.4374 3.6306C40.2208 3.58543 38.3513 3.44989 37.5234 1.64453C37.5679 1.64453 37.7846 2.86315 38.6095 3.44988Z" fill="#595961"/>
<path opacity="0.62" fill-rule="evenodd" clip-rule="evenodd" d="M40.9576 4.4421C41.3493 4.93847 41.7381 5.43484 42.1297 5.88633C41.9992 5.70562 40.7826 4.2165 41.3908 2.36597C41.4353 2.36597 40.7826 3.40418 40.9576 4.4421Z" fill="#595961"/>
<path fill-rule="evenodd" clip-rule="evenodd" d="M43.9558 17.7561C43.9973 17.2598 45.478 5.84146 41.3477 2.36628C40.5643 1.68949 39.6089 1.37354 38.5644 1.37354C37.7811 1.37354 36.9117 1.55395 35.9978 1.91508C31.998 3.40449 28.6509 7.42123 26.3038 13.559C24.5205 18.1624 23.9566 22.2695 23.9121 22.4499C23.9121 22.5852 23.9983 22.7207 24.1289 22.7207H24.1733C24.3038 22.7207 24.3899 22.6304 24.3899 22.4951C24.4344 22.3144 26.7814 5.84146 36.1282 2.3211C38.1281 1.55395 39.8254 1.68949 41.0419 2.72741C44.9973 6.02188 43.5197 17.5305 43.4782 17.6661C43.4782 17.8013 43.5642 17.9368 43.6948 17.9368C43.6948 17.9368 43.6947 17.9368 43.7363 17.9368C43.8668 17.982 43.9558 17.8917 43.9558 17.7561Z" fill="url(#paint22_linear_5_1473)"/>
<path fill-rule="evenodd" clip-rule="evenodd" d="M45.6965 12.1147C45.5215 7.24043 44.4355 3.94567 42.4355 2.23067C41.3495 1.32829 40.0441 0.921972 38.5664 1.01233C39.6969 1.10239 40.7384 1.5087 41.6108 2.23067C43.6107 3.90079 44.6966 7.24043 44.8687 12.1147C44.9992 15.5447 44.6106 18.5232 44.6106 18.6587C44.5216 19.2003 44.1744 19.6066 43.7382 19.7418C43.8272 19.787 43.8687 19.787 43.9577 19.787C44.6521 19.8774 45.3049 19.3807 45.391 18.6587C45.4355 18.5232 45.8271 15.5899 45.6965 12.1147Z" fill="url(#paint23_linear_5_1473)"/>
<path fill-rule="evenodd" clip-rule="evenodd" d="M36.0892 4.1264C27.3508 7.42087 25.0453 23.2622 25.0453 23.4426C24.9592 23.9842 24.609 24.3905 24.1758 24.5257C24.2618 24.5709 24.3063 24.5709 24.3924 24.5709C24.4369 24.5709 24.523 24.5709 24.5675 24.5709C25.2203 24.5709 25.7395 24.0745 25.8285 23.4426C25.8701 23.2622 28.1311 7.46606 36.8696 4.17129C37.4809 3.9457 38.0002 3.81045 38.4809 3.76528C37.8281 3.67492 37.0002 3.81045 36.0892 4.1264Z" fill="url(#paint24_linear_5_1473)"/>
</g>
<defs>
<linearGradient id="paint0_linear_5_1473" x1="34.8331" y1="3.82209" x2="33.4696" y2="22.3866" gradientUnits="userSpaceOnUse">
<stop stop-color="white" stop-opacity="0.65"/>
<stop offset="1" stop-color="white" stop-opacity="0.01"/>
</linearGradient>
<linearGradient id="paint1_linear_5_1473" x1="44.7993" y1="14.4485" x2="54.3994" y2="22.8569" gradientUnits="userSpaceOnUse">
<stop stop-opacity="0.01"/>
<stop offset="1" stop-opacity="0.4"/>
</linearGradient>
<linearGradient id="paint2_linear_5_1473" x1="40.9475" y1="24.1755" x2="51.1089" y2="14.7109" gradientUnits="userSpaceOnUse">
<stop stop-opacity="0.01"/>
<stop offset="1" stop-opacity="0.4"/>
</linearGradient>
<linearGradient id="paint3_linear_5_1473" x1="28.0141" y1="-3.44482" x2="-11.4534" y2="42.0304" gradientUnits="userSpaceOnUse">
<stop stop-color="#B8D26E"/>
<stop offset="1" stop-color="#7FB525"/>
</linearGradient>
<linearGradient id="paint4_linear_5_1473" x1="82.0009" y1="7.94026" x2="60.3403" y2="8.34248" gradientUnits="userSpaceOnUse">
<stop stop-color="#B4E034"/>
<stop offset="1" stop-color="#60A927"/>
</linearGradient>
<linearGradient id="paint5_linear_5_1473" x1="17.576" y1="38.263" x2="-0.182759" y2="81.5091" gradientUnits="userSpaceOnUse">
<stop stop-color="white"/>
<stop offset="1" stop-color="#CECEEB"/>
</linearGradient>
<linearGradient id="paint6_linear_5_1473" x1="43.0349" y1="144.765" x2="71.1611" y2="144.708" gradientUnits="userSpaceOnUse">
<stop stop-color="#1D1D1B" stop-opacity="0.5"/>
<stop offset="0.038033" stop-color="#1D1D1B" stop-opacity="0.4837"/>
<stop offset="0.4243" stop-color="#1D1D1B" stop-opacity="0.3185"/>
<stop offset="1" stop-color="#1D1D1B" stop-opacity="0.01"/>
</linearGradient>
<linearGradient id="paint7_linear_5_1473" x1="46.3055" y1="9.4019" x2="41.6394" y2="11.9132" gradientUnits="userSpaceOnUse">
<stop stop-opacity="0.01"/>
<stop offset="1" stop-opacity="0.4"/>
</linearGradient>
<linearGradient id="paint8_linear_5_1473" x1="26.7407" y1="16.8501" x2="23.4606" y2="19.6691" gradientUnits="userSpaceOnUse">
<stop stop-opacity="0.01"/>
<stop offset="1" stop-opacity="0.4"/>
</linearGradient>
<linearGradient id="paint9_linear_5_1473" x1="58.7345" y1="73.7978" x2="59.0666" y2="78.1753" gradientUnits="userSpaceOnUse">
<stop stop-opacity="0.01"/>
<stop offset="1" stop-opacity="0.4"/>
</linearGradient>
<linearGradient id="paint10_linear_5_1473" x1="50.9811" y1="67.3893" x2="51.751" y2="78.7706" gradientUnits="userSpaceOnUse">
<stop stop-color="white" stop-opacity="0.5"/>
<stop offset="0.0896271" stop-color="white" stop-opacity="0.4552"/>
<stop offset="1" stop-color="white" stop-opacity="0.01"/>
</linearGradient>
<linearGradient id="paint11_linear_5_1473" x1="49.5005" y1="69.1595" x2="50.87" y2="81.3172" gradientUnits="userSpaceOnUse">
<stop stop-opacity="0.01"/>
<stop offset="1" stop-opacity="0.4"/>
</linearGradient>
<linearGradient id="paint12_linear_5_1473" x1="44.1299" y1="-0.788385" x2="9.00615" y2="19.5258" gradientUnits="userSpaceOnUse">
<stop stop-color="white" stop-opacity="0.5"/>
<stop offset="1" stop-color="white" stop-opacity="0.01"/>
</linearGradient>
<linearGradient id="paint13_linear_5_1473" x1="50.9049" y1="105.38" x2="81.9065" y2="105.443" gradientUnits="userSpaceOnUse">
<stop stop-color="#1D1D1B" stop-opacity="0.5"/>
<stop offset="0.0896271" stop-color="#1D1D1B" stop-opacity="0.4552"/>
<stop offset="1" stop-color="#1D1D1B" stop-opacity="0.01"/>
</linearGradient>
<linearGradient id="paint14_linear_5_1473" x1="73.1081" y1="13.5192" x2="68.7042" y2="14.5983" gradientUnits="userSpaceOnUse">
<stop stop-color="white" stop-opacity="0.4"/>
<stop offset="1" stop-color="white" stop-opacity="0.01"/>
</linearGradient>
<linearGradient id="paint15_linear_5_1473" x1="33.5954" y1="79.4561" x2="35.8854" y2="68.4158" gradientUnits="userSpaceOnUse">
<stop stop-color="#1D1D1B" stop-opacity="0.5"/>
<stop offset="0.0896271" stop-color="#1D1D1B" stop-opacity="0.4552"/>
<stop offset="1" stop-color="#1D1D1B" stop-opacity="0.01"/>
</linearGradient>
<linearGradient id="paint16_linear_5_1473" x1="46.8329" y1="143.36" x2="75.0601" y2="143.384" gradientUnits="userSpaceOnUse">
<stop stop-color="#1D1D1B" stop-opacity="0.5"/>
<stop offset="1" stop-color="#1D1D1B" stop-opacity="0.01"/>
</linearGradient>
<linearGradient id="paint17_linear_5_1473" x1="21.0402" y1="6.42328" x2="7.35005" y2="59.0204" gradientUnits="userSpaceOnUse">
<stop stop-color="white" stop-opacity="0.5"/>
<stop offset="1" stop-color="white" stop-opacity="0.01"/>
</linearGradient>
<linearGradient id="paint18_linear_5_1473" x1="21.0402" y1="6.42328" x2="7.35005" y2="59.0204" gradientUnits="userSpaceOnUse">
<stop stop-color="white" stop-opacity="0.5"/>
<stop offset="1" stop-color="white" stop-opacity="0.01"/>
</linearGradient>
<linearGradient id="paint19_linear_5_1473" x1="54.2634" y1="61.5585" x2="43.4427" y2="76.452" gradientUnits="userSpaceOnUse">
<stop stop-color="white" stop-opacity="0.5"/>
<stop offset="0.0896271" stop-color="white" stop-opacity="0.4552"/>
<stop offset="1" stop-color="white" stop-opacity="0.01"/>
</linearGradient>
<linearGradient id="paint20_linear_5_1473" x1="57.5268" y1="64.9827" x2="56.4555" y2="67.3842" gradientUnits="userSpaceOnUse">
<stop stop-opacity="0.01"/>
<stop offset="1" stop-opacity="0.4"/>
</linearGradient>
<linearGradient id="paint21_linear_5_1473" x1="68.1556" y1="68.1579" x2="68.1027" y2="68.8034" gradientUnits="userSpaceOnUse">
<stop stop-opacity="0.01"/>
<stop offset="1" stop-opacity="0.4"/>
</linearGradient>
<linearGradient id="paint22_linear_5_1473" x1="29.1879" y1="-0.145695" x2="24.51" y2="18.3342" gradientUnits="userSpaceOnUse">
<stop stop-color="white" stop-opacity="0.65"/>
<stop offset="1" stop-color="white" stop-opacity="0.01"/>
</linearGradient>
<linearGradient id="paint23_linear_5_1473" x1="39.6583" y1="10.5145" x2="47.7958" y2="18.7876" gradientUnits="userSpaceOnUse">
<stop stop-opacity="0.01"/>
<stop offset="1" stop-opacity="0.4"/>
</linearGradient>
<linearGradient id="paint24_linear_5_1473" x1="34.4573" y1="22.6976" x2="45.7004" y2="11.151" gradientUnits="userSpaceOnUse">
<stop stop-opacity="0.01"/>
<stop offset="1" stop-opacity="0.4"/>
</linearGradient>
<clipPath id="clip0_5_1473">
<rect width="80" height="80" fill="white"/>
</clipPath>
</defs>
</svg>
