<svg width="80" height="80" viewBox="0 0 80 80" fill="none" xmlns="http://www.w3.org/2000/svg">
<g clip-path="url(#clip0_1_2)">
<path d="M71.8288 36.4681C76.0137 36.4681 79.4062 33.0755 79.4062 28.8906V28.8906C79.4062 24.7057 76.0134 21.3131 71.8285 21.3131V21.3131C67.6432 21.3131 64.25 24.706 64.25 28.8913V36.4681H71.8288ZM50.6094 36.4681C54.7947 36.4681 58.1875 33.0752 58.1875 28.89V7.67252C58.1875 3.48724 54.7947 0.0943909 50.6094 0.0943909V0.0943909C46.4241 0.0943909 43.0312 3.48723 43.0312 7.67252V28.89C43.0312 33.0752 46.4241 36.4681 50.6094 36.4681V36.4681Z" fill="#2EB67D"/>
<path d="M8.17122 42.5319C3.9863 42.5319 0.593753 45.9245 0.593753 50.1094V50.1094C0.593753 54.2943 3.98663 57.6869 8.17155 57.6869V57.6869C12.3568 57.6869 15.75 54.294 15.75 50.1087V42.5319H8.17122ZM29.3906 42.5319C25.2053 42.5319 21.8125 45.9248 21.8125 50.11V71.3275C21.8125 75.5128 25.2053 78.9056 29.3906 78.9056V78.9056C33.5759 78.9056 36.9688 75.5128 36.9688 71.3275V50.11C36.9688 45.9248 33.5759 42.5319 29.3906 42.5319V42.5319Z" fill="#E01E5A"/>
<path d="M43.0325 71.3288C43.0325 75.5137 46.4251 78.9062 50.61 78.9062V78.9062C54.7949 78.9062 58.1875 75.5134 58.1875 71.3285V71.3285C58.1875 67.1432 54.7946 63.75 50.6094 63.75L43.0325 63.75L43.0325 71.3288ZM43.0326 50.1094C43.0326 54.2947 46.4254 57.6875 50.6107 57.6875L71.8281 57.6875C76.0134 57.6875 79.4062 54.2947 79.4062 50.1094V50.1094C79.4062 45.9241 76.0134 42.5312 71.8281 42.5312L50.6107 42.5312C46.4254 42.5312 43.0326 45.9241 43.0326 50.1094V50.1094Z" fill="#ECB22E"/>
<path d="M36.9675 7.67122C36.9675 3.4863 33.5749 0.0937543 29.39 0.0937541V0.0937541C25.2051 0.093754 21.8125 3.48663 21.8125 7.67155V7.67155C21.8125 11.8568 25.2054 15.25 29.3906 15.25L36.9675 15.25L36.9675 7.67122ZM36.9674 28.8906C36.9674 24.7053 33.5746 21.3125 29.3893 21.3125L8.17188 21.3125C3.9866 21.3125 0.593751 24.7053 0.59375 28.8906V28.8906C0.59375 33.0759 3.98659 36.4688 8.17187 36.4688L29.3893 36.4688C33.5746 36.4688 36.9674 33.0759 36.9674 28.8906V28.8906Z" fill="#36C5F0"/>
</g>
<defs>
<clipPath id="clip0_1_2">
<rect width="80" height="80" fill="white"/>
</clipPath>
</defs>
</svg>
