<svg width="80" height="80" viewBox="0 0 80 80" fill="none" xmlns="http://www.w3.org/2000/svg">
<g clip-path="url(#clip0_5_1537)">
<path d="M3.89786 13.5122C1.5 18.2183 1.5 24.3788 1.5 36.7V43.3C1.5 55.6212 1.5 61.7817 3.89786 66.4878C6.00707 70.6274 9.37264 73.9929 13.5122 76.1021C18.2183 78.5 24.3788 78.5 36.7 78.5H43.3C55.6212 78.5 61.7817 78.5 66.4878 76.1021C70.6274 73.9929 73.9929 70.6274 76.1021 66.4878C78.5 61.7817 78.5 55.6212 78.5 43.3V36.7C78.5 24.3788 78.5 18.2183 76.1021 13.5122C73.9929 9.37264 70.6274 6.00707 66.4878 3.89786C61.7817 1.5 55.6212 1.5 43.3 1.5H36.7C24.3788 1.5 18.2183 1.5 13.5122 3.89786C9.37264 6.00707 6.00707 9.37264 3.89786 13.5122Z" fill="url(#paint0_linear_5_1537)"/>
<path d="M2.22936 18.7687C1.5 22.9137 1.5 28.4136 1.5 36.6999V43.2999C1.5 55.621 1.5 61.7816 3.89786 66.4877C6.00707 70.6272 9.37264 73.9928 13.5122 76.102C18.2183 78.4999 24.3788 78.4999 36.7 78.4999H43.3C55.6212 78.4999 61.7817 78.4999 66.4878 76.102C70.6274 73.9928 73.9929 70.6272 76.1021 66.4877C78.5 61.7816 78.5 55.621 78.5 43.2999V36.6999C78.5 24.3787 78.5 18.2181 76.1021 13.5121C74.0663 9.51655 70.86 6.24208 66.917 4.12244L2.22936 18.7687Z" fill="url(#paint1_linear_5_1537)"/>
<path d="M77.7034 61.5985C77.3498 63.4568 76.8393 65.0409 76.1022 66.4876C73.993 70.6272 70.6274 73.9928 66.4878 76.102C61.9226 78.4281 55.9886 78.4977 44.3897 78.4998H40.1611V69.801L77.7034 61.5985Z" fill="url(#paint2_linear_5_1537)"/>
<path d="M43.3026 1.5H36.7026C34.3055 1.5 32.1416 1.5 30.1763 1.51766V12.4189L66.9125 4.1187C66.7727 4.04363 66.632 3.97001 66.4904 3.89786C63.8778 2.56668 60.817 1.97451 56.5026 1.71108C53.0455 1.5 48.7836 1.5 43.3026 1.5Z" fill="url(#paint3_linear_5_1537)"/>
<path d="M78.5015 43.7767C78.5012 52.0421 78.4866 57.4903 77.7049 61.5986L64.6479 64.4513V44.9935L78.5015 41.7718V43.7767Z" fill="url(#paint4_linear_5_1537)"/>
<path fill-rule="evenodd" clip-rule="evenodd" d="M37.0889 32.7892C37.0889 31.0219 38.5338 30.3421 40.9271 30.3421C44.3589 30.3421 48.6938 31.3844 52.1256 33.2424V22.5929C48.3777 21.0974 44.675 20.5083 40.9271 20.5083C31.7605 20.5083 25.6646 25.3119 25.6646 33.333C25.6646 45.8405 42.8236 43.8466 42.8236 49.2393C42.8236 51.3239 41.0174 52.0036 38.4887 52.0036C34.7408 52.0036 29.9543 50.4629 26.1613 48.3783V59.1637C30.3607 60.9764 34.6053 61.7468 38.4887 61.7468C47.881 61.7468 54.3382 57.0791 54.3382 48.9674C54.293 35.4629 37.0889 37.8647 37.0889 32.7892Z" fill="white"/>
</g>
<defs>
<linearGradient id="paint0_linear_5_1537" x1="1.5" y1="1.5" x2="26.7908" y2="19.3808" gradientUnits="userSpaceOnUse">
<stop stop-color="#392993"/>
<stop offset="1" stop-color="#4B47B9"/>
</linearGradient>
<linearGradient id="paint1_linear_5_1537" x1="4.39958" y1="19.5797" x2="60.2307" y2="65.6326" gradientUnits="userSpaceOnUse">
<stop stop-color="#594BB9"/>
<stop offset="1" stop-color="#60A8F2"/>
</linearGradient>
<linearGradient id="paint2_linear_5_1537" x1="40.1611" y1="70.1234" x2="78.5" y2="78.4999" gradientUnits="userSpaceOnUse">
<stop stop-color="#61A2EF"/>
<stop offset="1" stop-color="#58E6FD"/>
</linearGradient>
<linearGradient id="paint3_linear_5_1537" x1="30.1763" y1="6.97699" x2="78.5026" y2="1.5" gradientUnits="userSpaceOnUse">
<stop stop-color="#534EBE"/>
<stop offset="1" stop-color="#6875E2"/>
</linearGradient>
<linearGradient id="paint4_linear_5_1537" x1="64.6479" y1="45.1546" x2="78.5015" y2="61.7467" gradientUnits="userSpaceOnUse">
<stop stop-color="#71A5F3"/>
<stop offset="1" stop-color="#6CC3FA"/>
</linearGradient>
<clipPath id="clip0_5_1537">
<rect width="80" height="80" fill="white"/>
</clipPath>
</defs>
</svg>
