<svg width="80" height="80" viewBox="0 0 80 80" fill="none" xmlns="http://www.w3.org/2000/svg">
<g clip-path="url(#clip0_5_1640)">
<path d="M39.639 17.5729C26.396 17.9938 22.46 27.4539 21.558 32.5789C22.7333 30.6792 26.437 26.511 31.89 26.511C38.245 26.511 43.083 33.604 46.035 35.818C49.6214 38.5078 56.8281 42.0594 66.289 39.18C73.833 36.884 77.3317 28.8752 78.097 25.0759C74.448 30.0369 68.913 33.0167 62.066 29.5039C57.351 27.0849 53.825 17.122 39.639 17.5729Z" fill="#07B6D5"/>
<path d="M20.902 40.0819C7.65905 40.5028 3.72304 49.9629 2.82104 55.0879C3.99638 53.1882 7.70005 49.02 13.153 49.02C19.508 49.02 24.346 56.113 27.298 58.327C30.8845 61.0168 38.0911 64.5684 47.552 61.689C55.096 59.393 58.5947 51.3842 59.36 47.5849C55.711 52.5459 50.176 55.5257 43.329 52.0129C38.614 49.5939 35.088 39.631 20.902 40.0819Z" fill="#07B6D5"/>
</g>
<defs>
<clipPath id="clip0_5_1640">
<rect width="80" height="80" fill="white"/>
</clipPath>
</defs>
</svg>
