<svg width="80" height="80" viewBox="0 0 80 80" fill="none" xmlns="http://www.w3.org/2000/svg">
<path d="M74.0187 0H5.98131C2.67792 0 0 2.67792 0 5.98131V74.0187C0 77.3221 2.67792 80 5.98131 80H74.0187C77.3221 80 80 77.3221 80 74.0187V5.98131C80 2.67792 77.3221 0 74.0187 0Z" fill="#3178C6"/>
<path fill-rule="evenodd" clip-rule="evenodd" d="M45.9282 59.8983V68.8411C47.3824 69.5865 49.1028 70.1458 51.0886 70.5181C53.0744 70.8912 55.1678 71.0774 57.3682 71.0774C59.5125 71.0774 61.5491 70.8725 63.4796 70.4621C65.4093 70.0523 67.1013 69.3772 68.5555 68.4359C70.0105 67.4953 71.1619 66.2654 72.0105 64.7469C72.8583 63.2292 73.283 61.3518 73.283 59.1163C73.283 57.4953 73.04 56.0748 72.5555 54.8538C72.071 53.6336 71.3712 52.5488 70.4576 51.5985C69.5439 50.6482 68.4486 49.7959 67.1716 49.0408C65.8938 48.2864 64.4538 47.5738 62.8501 46.9032C61.6755 46.4187 60.6221 45.9484 59.6897 45.4916C58.7574 45.0355 57.9649 44.5697 57.3122 44.0942C56.6595 43.6194 56.1563 43.1163 55.8019 42.5854C55.4475 42.0546 55.2703 41.4535 55.2703 40.7828C55.2703 40.1682 55.4288 39.6135 55.7458 39.12C56.0628 38.6265 56.5099 38.2026 57.0886 37.8482C57.6666 37.4946 58.3746 37.2194 59.2142 37.0243C60.0531 36.8284 60.9854 36.7305 62.0112 36.7305C62.7566 36.7305 63.5447 36.7865 64.3746 36.8979C65.2045 37.0101 66.0389 37.1821 66.8777 37.4153C67.7166 37.6478 68.5323 37.9417 69.3248 38.2953C70.1174 38.6497 70.8493 39.0594 71.5207 39.5252V31.1693C70.1592 30.6475 68.6722 30.2609 67.0594 30.009C65.4467 29.7577 63.5963 29.6321 61.5073 29.6321C59.3817 29.6321 57.3682 29.8602 55.4661 30.317C53.5641 30.7731 51.8908 31.4856 50.4456 32.4546C49.0004 33.4235 47.8579 34.6579 47.0191 36.1577C46.1802 37.6576 45.7608 39.4505 45.7608 41.5372C45.7608 44.2019 46.5294 46.4748 48.068 48.3566C49.6067 50.2385 51.9417 51.831 55.0744 53.1357C56.305 53.6381 57.452 54.1323 58.5144 54.6168C59.5776 55.1005 60.4957 55.6037 61.2695 56.1256C62.0434 56.6475 62.6542 57.2157 63.102 57.8303C63.5491 58.4456 63.7727 59.1439 63.7727 59.9267C63.7727 60.5039 63.6329 61.04 63.3533 61.5334C63.0736 62.0269 62.6497 62.4553 62.0808 62.8187C61.5118 63.182 60.8037 63.4662 59.9551 63.671C59.1065 63.8759 58.1136 63.9791 56.9764 63.9791C55.037 63.9791 53.1163 63.6389 51.2149 62.9585C49.3129 62.2789 47.5507 61.2583 45.9282 59.8983ZM31.0221 37.6434H42.5226V30.2796H10.4673V37.6434H21.9118V70.4299H31.0221V37.6434Z" fill="white"/>
</svg>
