<svg width="80" height="80" viewBox="0 0 80 80" fill="none" xmlns="http://www.w3.org/2000/svg">
<g clip-path="url(#clip0_5_1626)">
<g clip-path="url(#clip1_5_1626)">
<path d="M11.2057 70.7257L1 9.92573L20 2.10858L32.0514 9.2743L43.1257 3.30287L66.2514 12.2057L53.2229 78L11.2057 70.7257Z" fill="url(#paint0_linear_5_1626)"/>
<path d="M76.9986 27.7314L67.2272 3.52L49.4215 2L21.9529 28.3829L29.3357 62.3657L43.1243 72.1371L76.9986 51.9429L68.6386 36.4171L76.9986 27.7314Z" fill="url(#paint1_linear_5_1626)"/>
<path d="M61.7991 24.1485L68.6391 36.4171L76.9991 27.7314L70.9191 12.64L61.7991 24.1485Z" fill="url(#paint2_linear_5_1626)"/>
<path d="M15.5469 16.5486H62.4497V63.4515H15.5469V16.5486Z" fill="black"/>
<path d="M20 54.6573H37.5886V57.5888H20V54.6573Z" fill="white"/>
<path d="M43.0171 39.2402L45.5142 36.2002C47.2514 37.6116 49.0971 38.5887 51.2685 38.5887C53.0057 38.5887 53.9828 37.9373 53.9828 36.743V36.6345C53.9828 35.5487 53.3314 35.0059 50.0742 34.1373C46.1657 33.1602 43.7771 32.0745 43.7771 28.1659V28.0573C43.7771 24.4745 46.5999 22.1945 50.5085 22.1945C53.3314 22.1945 55.7199 23.063 57.6742 24.6916L55.5028 27.9487C53.7657 26.7545 52.1371 25.9945 50.5085 25.9945C48.8799 25.9945 48.0114 26.7545 48.0114 27.7316V27.8402C48.0114 29.143 48.8799 29.5773 52.1371 30.4459C56.0457 31.5316 58.2171 32.943 58.2171 36.3087V36.4173C58.2171 40.3259 55.2857 42.4973 51.1599 42.4973C48.2285 42.3887 45.2971 41.303 43.0171 39.2402Z" fill="white"/>
<path d="M39.2154 22.6287L36.284 33.9201L33.0268 22.6287H29.7697L26.404 33.9201L23.4725 22.6287H19.0211L24.5583 42.063H28.1411L31.3983 30.7715L34.5468 42.063H38.2383L43.7754 22.6287H39.2154Z" fill="white"/>
</g>
</g>
<defs>
<linearGradient id="paint0_linear_5_1626" x1="28.2167" y1="3.58515" x2="47.8844" y2="74.39" gradientUnits="userSpaceOnUse">
<stop offset="0.285" stop-color="#00CDD7"/>
<stop offset="0.941" stop-color="#2086D7"/>
</linearGradient>
<linearGradient id="paint1_linear_5_1626" x1="34.3517" y1="12.5683" x2="67.6234" y2="61.3571" gradientUnits="userSpaceOnUse">
<stop offset="0.14" stop-color="#FFF045"/>
<stop offset="0.366" stop-color="#00CDD7"/>
</linearGradient>
<linearGradient id="paint2_linear_5_1626" x1="67.3167" y1="18.6005" x2="71.6856" y2="34.0763" gradientUnits="userSpaceOnUse">
<stop offset="0.285" stop-color="#00CDD7"/>
<stop offset="0.941" stop-color="#2086D7"/>
</linearGradient>
<clipPath id="clip0_5_1626">
<rect width="80" height="80" fill="white"/>
</clipPath>
<clipPath id="clip1_5_1626">
<rect width="76" height="76" fill="white" transform="translate(1 2)"/>
</clipPath>
</defs>
</svg>
