<svg width="690" height="152" viewBox="0 0 690 152" fill="none" xmlns="http://www.w3.org/2000/svg">
<g clip-path="url(#clip0_42_100)">
<path d="M116 22.3846C102.73 31.957 103.049 31.1057 93.1452 36.2134C92.4597 36.5686 91.2355 37.1137 90.5194 37.4015C81.3261 41.1435 70.6332 44.5671 63.4352 49.4604C62.5967 50.03 61.5867 50.2627 60.5829 50.1219C59.0528 49.9136 56.8065 49.8769 55.362 50.0912C54.6764 50.1954 53.9787 50.0729 53.3789 49.7238C47.9314 46.5514 22.2488 30.9036 5.33115 8.34139C5.34339 8.34752 0.416209 1.01052 0 0C1.54242 8.30465 1.67096 13.8105 4.0764 21.8579C6.72668 30.7137 8.40376 33.7269 10.8704 38.5407C13.7533 44.1628 17.7746 49.1358 22.7385 53.0432C25.095 54.8989 27.684 56.6321 30.5118 58.2244C28.2471 60.3802 27.274 61.3233 27.274 61.3233L19.9474 57.661C19.9474 57.661 19.7577 57.71 19.0049 58.598C19.3537 58.8368 20.0393 59.5105 21.8204 61.0845C20.9023 60.5884 18.8886 59.7371 18.2642 59.4738C18.148 59.6146 18.0378 59.7616 17.9154 59.927C18.1541 60.1842 18.7967 60.8763 20.5656 62.7809C19.8128 62.1195 17.9215 61.2376 17.3033 60.7905C14.7387 64.4651 11.4152 71.6674 12.4067 84.3938C15.8527 79.2188 16.7157 78.1409 16.7157 78.1409C16.7157 78.1409 13.79 85.7657 13.0555 90.6468C9.17497 96.2506 6.15745 99.2699 6.15745 107.25C10.2339 102.461 11.2866 100.219 12.6026 99.5639C13.9185 98.9086 13.7655 104.396 19.0783 112.835C21.2328 116.541 22.0713 117.006 22.0713 117.006C22.0713 117.006 22.0958 113.797 20.6024 108.181C19.115 102.565 17.0156 96.4711 17.2176 90.3161C17.4196 88.1481 17.6889 87.6765 17.6889 87.6765C17.6889 87.6765 17.6889 89.4342 18.3622 90.7203C19.5129 84.3571 20.5901 82.5075 22.8242 80.4314C24.3115 79.0473 26.6129 78.3307 26.6129 78.3307C26.6129 78.3307 17.8909 86.519 20.7982 100.525C20.7982 100.525 24.1891 74.16 50.294 71.4592C53.2503 71.153 55.2763 70.9141 60.9502 71.2264C66.6302 71.5388 77.366 70.6814 83.2786 67.411C84.0559 66.7863 82.7155 65.7758 82.7155 65.7758C82.7155 65.7758 84.6007 64.6856 84.2151 63.3628C83.8233 62.0399 83.1562 59.7739 81.9565 58.6164C81.2404 57.9243 78.6881 56.5953 78.6881 56.5953C78.6881 56.5953 98.2071 45.7981 115.988 22.3907L116 22.3846Z" fill="url(#paint0_linear_42_100)"/>
</g>
<path d="M58.4002 131.1C53.1335 131.1 48.4335 130.033 44.3002 127.9C40.2335 125.7 37.0335 122.667 34.7002 118.8C32.3669 114.933 31.2002 110.567 31.2002 105.7C31.2002 100.833 32.3335 96.4999 34.6002 92.6999C36.9335 88.8332 40.0669 85.7999 44.0002 83.5999C47.9335 81.3999 52.3669 80.2999 57.3002 80.2999C62.1002 80.2999 66.3335 81.3332 70.0002 83.3999C73.6669 85.4666 76.5335 88.3332 78.6002 91.9999C80.7335 95.6666 81.8002 99.8666 81.8002 104.6C81.8002 105.467 81.7335 106.4 81.6002 107.4C81.5335 108.333 81.3669 109.433 81.1002 110.7L39.2002 110.8V100.3L74.6002 100.2L68.0002 104.6C67.9335 101.8 67.5002 99.4999 66.7002 97.6999C65.9002 95.8332 64.7002 94.4332 63.1002 93.4999C61.5669 92.4999 59.6669 91.9999 57.4002 91.9999C55.0002 91.9999 52.9002 92.5666 51.1002 93.6999C49.3669 94.7666 48.0002 96.2999 47.0002 98.2999C46.0669 100.3 45.6002 102.733 45.6002 105.6C45.6002 108.467 46.1002 110.933 47.1002 113C48.1669 115 49.6335 116.567 51.5002 117.7C53.4335 118.767 55.7002 119.3 58.3002 119.3C60.7002 119.3 62.8669 118.9 64.8002 118.1C66.7335 117.233 68.4335 115.967 69.9002 114.3L78.3002 122.7C75.9002 125.5 73.0002 127.6 69.6002 129C66.2002 130.4 62.4669 131.1 58.4002 131.1Z" fill="#1A1A1A"/>
<path d="M109.485 131C105.019 131 101.019 129.9 97.4854 127.7C94.0187 125.5 91.252 122.5 89.1854 118.7C87.1854 114.9 86.1854 110.567 86.1854 105.7C86.1854 100.833 87.1854 96.4999 89.1854 92.6999C91.252 88.8999 94.0187 85.8999 97.4854 83.6999C101.019 81.4999 105.019 80.3999 109.485 80.3999C112.752 80.3999 115.685 81.0332 118.285 82.2999C120.952 83.5666 123.119 85.3332 124.785 87.5999C126.452 89.7999 127.385 92.3332 127.585 95.1999V116.2C127.385 119.067 126.452 121.633 124.785 123.9C123.185 126.1 121.052 127.833 118.385 129.1C115.719 130.367 112.752 131 109.485 131ZM112.585 117.2C115.852 117.2 118.485 116.133 120.485 114C122.485 111.8 123.485 109.033 123.485 105.7C123.485 103.433 123.019 101.433 122.085 99.6999C121.219 97.9666 119.952 96.6332 118.285 95.6999C116.685 94.6999 114.819 94.1999 112.685 94.1999C110.552 94.1999 108.652 94.6999 106.985 95.6999C105.385 96.6332 104.085 97.9666 103.085 99.6999C102.152 101.433 101.685 103.433 101.685 105.7C101.685 107.9 102.152 109.867 103.085 111.6C104.019 113.333 105.319 114.7 106.985 115.7C108.652 116.7 110.519 117.2 112.585 117.2ZM122.885 130V116.9L125.185 105.1L122.885 93.2999V81.3999H137.885V130H122.885Z" fill="#1A1A1A"/>
<path d="M166.358 131.2C163.491 131.2 160.658 130.833 157.858 130.1C155.125 129.367 152.558 128.333 150.158 127C147.825 125.6 145.825 124 144.158 122.2L152.858 113.4C154.458 115.133 156.358 116.5 158.558 117.5C160.758 118.433 163.158 118.9 165.758 118.9C167.558 118.9 168.925 118.633 169.858 118.1C170.858 117.567 171.358 116.833 171.358 115.9C171.358 114.7 170.758 113.8 169.558 113.2C168.425 112.533 166.958 111.967 165.158 111.5C163.358 110.967 161.458 110.4 159.458 109.8C157.458 109.2 155.558 108.367 153.758 107.3C151.958 106.233 150.491 104.767 149.358 102.9C148.225 100.967 147.658 98.5332 147.658 95.5999C147.658 92.4666 148.458 89.7666 150.058 87.4999C151.658 85.1666 153.925 83.3332 156.858 81.9999C159.791 80.6666 163.225 79.9999 167.158 79.9999C171.291 79.9999 175.091 80.7332 178.558 82.1999C182.091 83.5999 184.958 85.6999 187.158 88.4999L178.458 97.2999C176.925 95.4999 175.191 94.2332 173.258 93.4999C171.391 92.7666 169.558 92.3999 167.758 92.3999C166.025 92.3999 164.725 92.6666 163.858 93.1999C162.991 93.6666 162.558 94.3666 162.558 95.2999C162.558 96.2999 163.125 97.0999 164.258 97.6999C165.391 98.2999 166.858 98.8332 168.658 99.2999C170.458 99.7666 172.358 100.333 174.358 101C176.358 101.667 178.258 102.567 180.058 103.7C181.858 104.833 183.325 106.367 184.458 108.3C185.591 110.167 186.158 112.633 186.158 115.7C186.158 120.433 184.358 124.2 180.758 127C177.225 129.8 172.425 131.2 166.358 131.2Z" fill="#1A1A1A"/>
<path d="M209.459 130.2L189.459 81.3999H205.959L218.659 120.1H212.559L225.559 81.3999H242.059L221.259 130.2H209.459ZM196.959 150.5L211.559 119L221.259 130.2L212.659 150.5H196.959Z" fill="#1A1A1A"/>
<path d="M243.71 151.8C240.176 151.8 237.176 151.2 234.71 150C232.243 148.867 230.076 147.233 228.21 145.1L237.71 135.6C238.443 136.467 239.21 137.067 240.01 137.4C240.743 137.8 241.61 138 242.61 138C244.076 138 245.276 137.567 246.21 136.7C247.21 135.833 247.71 134.5 247.71 132.7V81.3999H263.01V132.5C263.01 136.433 262.176 139.833 260.51 142.7C258.843 145.567 256.543 147.8 253.61 149.4C250.743 151 247.443 151.8 243.71 151.8ZM255.51 74.6999C253.11 74.6999 251.11 73.8999 249.51 72.2999C247.976 70.6332 247.21 68.6332 247.21 66.2999C247.21 63.8999 247.976 61.8999 249.51 60.2999C251.11 58.6999 253.11 57.8999 255.51 57.8999C257.91 57.8999 259.876 58.6999 261.41 60.2999C262.943 61.8999 263.71 63.8999 263.71 66.2999C263.71 68.6332 262.943 70.6332 261.41 72.2999C259.876 73.8999 257.91 74.6999 255.51 74.6999Z" fill="#1A1A1A"/>
<path d="M297.253 131.1C292.253 131.1 287.72 130 283.653 127.8C279.653 125.533 276.487 122.467 274.153 118.6C271.82 114.733 270.653 110.4 270.653 105.6C270.653 100.8 271.82 96.4999 274.153 92.6999C276.487 88.8999 279.653 85.8999 283.653 83.6999C287.653 81.4332 292.187 80.2999 297.253 80.2999C302.32 80.2999 306.853 81.3999 310.853 83.5999C314.853 85.7999 318.02 88.8332 320.353 92.6999C322.687 96.4999 323.853 100.8 323.853 105.6C323.853 110.4 322.687 114.733 320.353 118.6C318.02 122.467 314.853 125.533 310.853 127.8C306.853 130 302.32 131.1 297.253 131.1ZM297.253 117.2C299.453 117.2 301.387 116.733 303.053 115.8C304.72 114.8 305.987 113.433 306.853 111.7C307.787 109.9 308.253 107.867 308.253 105.6C308.253 103.333 307.787 101.367 306.853 99.6999C305.92 97.9666 304.62 96.6332 302.953 95.6999C301.353 94.6999 299.453 94.1999 297.253 94.1999C295.12 94.1999 293.22 94.6999 291.553 95.6999C289.887 96.6332 288.587 97.9666 287.653 99.6999C286.72 101.433 286.253 103.433 286.253 105.7C286.253 107.9 286.72 109.9 287.653 111.7C288.587 113.433 289.887 114.8 291.553 115.8C293.22 116.733 295.12 117.2 297.253 117.2Z" fill="#1A1A1A"/>
<path d="M353.07 131.1C348.604 131.1 344.637 130.2 341.171 128.4C337.771 126.533 335.104 124 333.171 120.8C331.237 117.533 330.271 113.8 330.271 109.6V81.3999H345.57V109.4C345.57 111.067 345.837 112.5 346.37 113.7C346.97 114.9 347.837 115.833 348.97 116.5C350.104 117.167 351.47 117.5 353.07 117.5C355.337 117.5 357.137 116.8 358.47 115.4C359.804 113.933 360.47 111.933 360.47 109.4V81.3999H375.771V109.5C375.771 113.767 374.804 117.533 372.87 120.8C370.937 124 368.27 126.533 364.87 128.4C361.47 130.2 357.537 131.1 353.07 131.1Z" fill="#1A1A1A"/>
<path d="M385.377 130V81.3999H400.677V130H385.377ZM400.677 103.3L394.277 98.2999C395.543 92.6332 397.677 88.2332 400.677 85.0999C403.677 81.9666 407.843 80.3999 413.177 80.3999C415.51 80.3999 417.543 80.7666 419.277 81.4999C421.077 82.1666 422.643 83.2332 423.977 84.6999L414.877 96.1999C414.21 95.4666 413.377 94.8999 412.377 94.4999C411.377 94.0999 410.243 93.8999 408.977 93.8999C406.443 93.8999 404.41 94.6999 402.877 96.2999C401.41 97.8332 400.677 100.167 400.677 103.3Z" fill="#1A1A1A"/>
<path d="M459.762 130V102.3C459.762 99.7666 458.962 97.7332 457.362 96.1999C455.829 94.5999 453.862 93.7999 451.462 93.7999C449.795 93.7999 448.329 94.1666 447.062 94.8999C445.795 95.5666 444.795 96.5666 444.062 97.8999C443.329 99.1666 442.962 100.633 442.962 102.3L437.062 99.3999C437.062 95.5999 437.895 92.2666 439.562 89.3999C441.229 86.5332 443.529 84.3332 446.462 82.7999C449.462 81.1999 452.829 80.3999 456.562 80.3999C460.162 80.3999 463.329 81.2666 466.062 82.9999C468.862 84.6666 471.062 86.8999 472.662 89.6999C474.262 92.4999 475.062 95.5666 475.062 98.8999V130H459.762ZM427.662 130V81.3999H442.962V130H427.662Z" fill="#1A1A1A"/>
<path d="M508.888 131.1C503.622 131.1 498.922 130.033 494.788 127.9C490.722 125.7 487.522 122.667 485.188 118.8C482.855 114.933 481.688 110.567 481.688 105.7C481.688 100.833 482.822 96.4999 485.088 92.6999C487.422 88.8332 490.555 85.7999 494.488 83.5999C498.422 81.3999 502.855 80.2999 507.788 80.2999C512.588 80.2999 516.822 81.3332 520.488 83.3999C524.155 85.4666 527.022 88.3332 529.088 91.9999C531.222 95.6666 532.288 99.8666 532.288 104.6C532.288 105.467 532.222 106.4 532.088 107.4C532.022 108.333 531.855 109.433 531.588 110.7L489.688 110.8V100.3L525.088 100.2L518.488 104.6C518.422 101.8 517.988 99.4999 517.188 97.6999C516.388 95.8332 515.188 94.4332 513.588 93.4999C512.055 92.4999 510.155 91.9999 507.888 91.9999C505.488 91.9999 503.388 92.5666 501.588 93.6999C499.855 94.7666 498.488 96.2999 497.488 98.2999C496.555 100.3 496.088 102.733 496.088 105.6C496.088 108.467 496.588 110.933 497.588 113C498.655 115 500.122 116.567 501.988 117.7C503.922 118.767 506.188 119.3 508.788 119.3C511.188 119.3 513.355 118.9 515.288 118.1C517.222 117.233 518.922 115.967 520.388 114.3L528.788 122.7C526.388 125.5 523.488 127.6 520.088 129C516.688 130.4 512.955 131.1 508.888 131.1Z" fill="#1A1A1A"/>
<path d="M553.892 130.2L533.892 81.3999H550.392L563.092 120.1H556.992L569.992 81.3999H586.492L565.692 130.2H553.892ZM541.392 150.5L555.992 119L565.692 130.2L557.092 150.5H541.392Z" fill="#1A1A1A"/>
<path d="M595.074 131.1C592.474 131.1 590.308 130.2 588.574 128.4C586.841 126.6 585.974 124.433 585.974 121.9C585.974 119.233 586.841 117.033 588.574 115.3C590.308 113.5 592.474 112.6 595.074 112.6C597.741 112.6 599.908 113.5 601.574 115.3C603.308 117.033 604.174 119.233 604.174 121.9C604.174 124.433 603.308 126.6 601.574 128.4C599.908 130.2 597.741 131.1 595.074 131.1Z" fill="#1A1A1A"/>
<path d="M634.583 131C630.116 131 626.116 129.9 622.583 127.7C619.116 125.5 616.35 122.5 614.283 118.7C612.283 114.9 611.283 110.567 611.283 105.7C611.283 100.833 612.283 96.4999 614.283 92.6999C616.35 88.8999 619.116 85.8999 622.583 83.6999C626.116 81.4999 630.116 80.3999 634.583 80.3999C637.85 80.3999 640.783 81.0332 643.383 82.2999C646.05 83.5666 648.216 85.3332 649.883 87.5999C651.55 89.7999 652.483 92.3332 652.683 95.1999V116.2C652.483 119.067 651.55 121.633 649.883 123.9C648.283 126.1 646.15 127.833 643.483 129.1C640.816 130.367 637.85 131 634.583 131ZM637.683 117.2C640.95 117.2 643.583 116.133 645.583 114C647.583 111.8 648.583 109.033 648.583 105.7C648.583 103.433 648.116 101.433 647.183 99.6999C646.316 97.9666 645.05 96.6332 643.383 95.6999C641.783 94.6999 639.916 94.1999 637.783 94.1999C635.65 94.1999 633.75 94.6999 632.083 95.6999C630.483 96.6332 629.183 97.9666 628.183 99.6999C627.25 101.433 626.783 103.433 626.783 105.7C626.783 107.9 627.25 109.867 628.183 111.6C629.116 113.333 630.416 114.7 632.083 115.7C633.75 116.7 635.616 117.2 637.683 117.2ZM647.983 130V116.9L650.283 105.1L647.983 93.2999V81.3999H662.983V130H647.983Z" fill="#1A1A1A"/>
<path d="M673.756 130V81.3999H689.056V130H673.756ZM681.456 74.6999C679.056 74.6999 677.056 73.8999 675.456 72.2999C673.922 70.6332 673.156 68.6332 673.156 66.2999C673.156 63.8999 673.922 61.8999 675.456 60.2999C677.056 58.6999 679.056 57.8999 681.456 57.8999C683.856 57.8999 685.822 58.6999 687.356 60.2999C688.889 61.8999 689.656 63.8999 689.656 66.2999C689.656 68.6332 688.889 70.6332 687.356 72.2999C685.822 73.8999 683.856 74.6999 681.456 74.6999Z" fill="#1A1A1A"/>
<defs>
<linearGradient id="paint0_linear_42_100" x1="58" y1="0" x2="58" y2="117.006" gradientUnits="userSpaceOnUse">
<stop stop-color="#AFA0E4"/>
<stop offset="0.354167" stop-color="#AFA0E4"/>
<stop offset="1" stop-color="#6D44FF"/>
</linearGradient>
<clipPath id="clip0_42_100">
<rect width="116" height="117" fill="white"/>
</clipPath>
</defs>
</svg>
