<svg width="116" height="117" viewBox="0 0 116 117" fill="none" xmlns="http://www.w3.org/2000/svg">
<g clip-path="url(#clip0_24_3688)">
<path d="M116 22.3846C102.73 31.957 103.049 31.1057 93.1452 36.2134C92.4597 36.5686 91.2355 37.1137 90.5194 37.4015C81.3261 41.1435 70.6332 44.5671 63.4352 49.4604C62.5967 50.03 61.5867 50.2627 60.5829 50.1219C59.0528 49.9136 56.8065 49.8769 55.362 50.0912C54.6764 50.1953 53.9787 50.0729 53.3789 49.7238C47.9314 46.5513 22.2488 30.9036 5.33115 8.34139C5.34339 8.34752 0.416209 1.01052 0 0C1.54242 8.30465 1.67096 13.8105 4.0764 21.8579C6.72668 30.7137 8.40376 33.7269 10.8704 38.5407C13.7533 44.1628 17.7746 49.1358 22.7385 53.0432C25.095 54.8989 27.684 56.6321 30.5118 58.2244C28.2472 60.3802 27.274 61.3233 27.274 61.3233L19.9474 57.661C19.9474 57.661 19.7577 57.7099 19.0049 58.598C19.3537 58.8368 20.0393 59.5105 21.8204 61.0845C20.9023 60.5884 18.8886 59.7371 18.2642 59.4738C18.148 59.6146 18.0378 59.7616 17.9154 59.927C18.1541 60.1842 18.7967 60.8763 20.5656 62.7809C19.8128 62.1195 17.9215 61.2376 17.3033 60.7905C14.7387 64.4651 11.4152 71.6674 12.4067 84.3938C15.8527 79.2187 16.7157 78.1409 16.7157 78.1409C16.7157 78.1409 13.79 85.7657 13.0555 90.6468C9.17497 96.2506 6.15745 99.2699 6.15745 107.25C10.2339 102.461 11.2866 100.219 12.6026 99.5639C13.9185 98.9086 13.7655 104.396 19.0783 112.835C21.2328 116.541 22.0713 117.006 22.0713 117.006C22.0713 117.006 22.0958 113.797 20.6024 108.181C19.115 102.565 17.0156 96.4711 17.2176 90.3161C17.4196 88.1481 17.6889 87.6765 17.6889 87.6765C17.6889 87.6765 17.6889 89.4342 18.3622 90.7203C19.5129 84.3571 20.5901 82.5075 22.8242 80.4314C24.3115 79.0473 26.6129 78.3307 26.6129 78.3307C26.6129 78.3307 17.8909 86.519 20.7982 100.525C20.7982 100.525 24.1891 74.16 50.294 71.4592C53.2503 71.1529 55.2763 70.9141 60.9502 71.2264C66.6302 71.5388 77.366 70.6814 83.2786 67.411C84.0559 66.7863 82.7155 65.7757 82.7155 65.7757C82.7155 65.7757 84.6007 64.6856 84.2151 63.3627C83.8233 62.0399 83.1562 59.7739 81.9565 58.6164C81.2404 57.9243 78.6881 56.5953 78.6881 56.5953C78.6881 56.5953 98.2071 45.798 115.988 22.3907L116 22.3846Z" fill="#895AF6"/>
</g>
<defs>
<clipPath id="clip0_24_3688">
<rect width="116" height="117" fill="white"/>
</clipPath>
</defs>
</svg>
