<svg width="96" height="96" viewBox="0 0 96 96" fill="none" xmlns="http://www.w3.org/2000/svg">
<g clip-path="url(#clip0_44_123)">
<path d="M95.3766 18.3668C84.4661 26.2211 84.7278 25.5226 76.5851 29.7136C76.0215 30.005 75.015 30.4523 74.4262 30.6884C66.8673 33.7588 58.0755 36.5678 52.1572 40.5829C51.4677 41.0503 50.6374 41.2412 49.812 41.1256C48.5539 40.9548 46.707 40.9246 45.5193 41.1005C44.9556 41.1859 44.3819 41.0854 43.8887 40.799C39.4098 38.196 18.2933 25.3568 4.38334 6.84422C4.3934 6.84925 0.342212 0.829146 0 0C1.2682 6.81407 1.37388 11.3317 3.35167 17.9347C5.53076 25.201 6.90967 27.6734 8.93778 31.6231C11.3081 36.2362 14.6145 40.3166 18.6959 43.5226C20.6334 45.0452 22.7622 46.4673 25.0872 47.7739C23.2252 49.5427 22.425 50.3166 22.425 50.3166L16.401 47.3116C16.401 47.3116 16.245 47.3518 15.626 48.0804C15.9129 48.2764 16.4765 48.8292 17.941 50.1206C17.1861 49.7136 15.5304 49.0151 15.0171 48.799C14.9215 48.9146 14.8309 49.0352 14.7302 49.1709C14.9265 49.3819 15.4549 49.9498 16.9093 51.5126C16.2903 50.9699 14.7353 50.2462 14.227 49.8794C12.1183 52.8945 9.38568 58.804 10.201 69.2462C13.0343 65 13.7439 64.1156 13.7439 64.1156C13.7439 64.1156 11.3383 70.3719 10.7344 74.3769C7.54377 78.9749 5.06273 81.4523 5.06273 88C8.4144 84.0704 9.28 82.2312 10.362 81.6935C11.444 81.1558 11.3182 85.6583 15.6864 92.5829C17.4579 95.6231 18.1473 96.005 18.1473 96.005C18.1473 96.005 18.1675 93.3719 16.9395 88.7638C15.7166 84.1558 13.9904 79.1558 14.1565 74.1055C14.3226 72.3266 14.544 71.9397 14.544 71.9397C14.544 71.9397 14.544 73.3819 15.0976 74.4372C16.0437 69.2161 16.9295 67.6985 18.7663 65.995C19.9892 64.8593 21.8815 64.2714 21.8815 64.2714C21.8815 64.2714 14.7101 70.99 17.1006 82.4824C17.1006 82.4824 19.8886 60.8493 41.3523 58.6332C43.7831 58.3819 45.4488 58.1859 50.114 58.4422C54.7842 58.6985 63.6113 57.995 68.4727 55.3116C69.1118 54.799 68.0097 53.9699 68.0097 53.9699C68.0097 53.9699 69.5597 53.0754 69.2427 51.99C68.9206 50.9045 68.372 49.0452 67.3857 48.0955C66.7968 47.5276 64.6983 46.4372 64.6983 46.4372C64.6983 46.4372 80.747 37.5779 95.3666 18.3719L95.3766 18.3668Z" fill="white"/>
</g>
<defs>
<clipPath id="clip0_44_123">
<rect width="95.3766" height="96" fill="white"/>
</clipPath>
</defs>
</svg>
