<svg width="16" height="16" viewBox="0 0 16 16" fill="none" xmlns="http://www.w3.org/2000/svg">
<g clip-path="url(#clip0_37_65)">
<g filter="url(#filter0_d_37_65)">
<path d="M15.6504 3.52627C13.9702 4.7351 14.0105 4.6276 12.7564 5.27262C12.6696 5.31748 12.5146 5.38631 12.424 5.42266C11.2598 5.89522 9.90586 6.32755 8.99441 6.9455C8.88823 7.01743 8.76035 7.04682 8.63324 7.02903C8.43948 7.00274 8.15504 6.9981 7.97213 7.02517C7.88533 7.03831 7.79698 7.02285 7.72102 6.97876C7.03124 6.57814 3.77918 4.60208 1.63697 1.75284C1.63852 1.75362 1.01462 0.827075 0.961914 0.699463C1.15722 1.7482 1.1735 2.4435 1.47809 3.45976C1.81368 4.5781 2.02604 4.95862 2.33838 5.56652C2.70342 6.27651 3.21263 6.90451 3.84118 7.39795C4.13957 7.63229 4.46741 7.85116 4.82548 8.05225C4.53872 8.32449 4.41548 8.4436 4.41548 8.4436L3.48776 7.9811C3.48776 7.9811 3.46374 7.98728 3.36841 8.09943C3.41258 8.12959 3.49939 8.21467 3.72493 8.41343C3.60867 8.35079 3.35368 8.24328 3.27463 8.21003C3.2599 8.22781 3.24595 8.24638 3.23045 8.26726C3.26068 8.29974 3.34206 8.38714 3.56604 8.62767C3.47071 8.54414 3.23123 8.43277 3.15295 8.37631C2.82821 8.84035 2.40736 9.74988 2.53292 11.357C2.96926 10.7035 3.07854 10.5674 3.07854 10.5674C3.07854 10.5674 2.70808 11.5303 2.61507 12.1467C2.1237 12.8543 1.7416 13.2356 1.7416 14.2434C2.25778 13.6386 2.39108 13.3555 2.55772 13.2728C2.72435 13.19 2.70498 13.883 3.37771 14.9487C3.65052 15.4166 3.7567 15.4754 3.7567 15.4754C3.7567 15.4754 3.7598 15.0702 3.57069 14.3609C3.38236 13.6517 3.11652 12.8822 3.1421 12.1049C3.16767 11.8311 3.20177 11.7716 3.20177 11.7716C3.20177 11.7716 3.20177 11.9935 3.28703 12.156C3.43274 11.3524 3.56914 11.1188 3.85203 10.8566C4.04037 10.6818 4.33178 10.5913 4.33178 10.5913C4.33178 10.5913 3.22735 11.6254 3.59549 13.3942C3.59549 13.3942 4.02486 10.0647 7.3304 9.72359C7.70475 9.68491 7.96128 9.65475 8.67974 9.6942C9.39898 9.73364 10.7584 9.62536 11.5071 9.21236C11.6055 9.13348 11.4358 9.00586 11.4358 9.00586C11.4358 9.00586 11.6745 8.8682 11.6257 8.70114C11.5761 8.53408 11.4916 8.24792 11.3397 8.10175C11.249 8.01435 10.9258 7.84652 10.9258 7.84652C10.9258 7.84652 13.3974 6.48301 15.6489 3.52704L15.6504 3.52627Z" fill="white"/>
</g>
</g>
<defs>
<filter id="filter0_d_37_65" x="-1.39874" y="-1.31147" width="19.4098" height="19.4973" filterUnits="userSpaceOnUse" color-interpolation-filters="sRGB">
<feFlood flood-opacity="0" result="BackgroundImageFix"/>
<feColorMatrix in="SourceAlpha" type="matrix" values="0 0 0 0 0 0 0 0 0 0 0 0 0 0 0 0 0 0 127 0" result="hardAlpha"/>
<feOffset dy="0.349727"/>
<feGaussianBlur stdDeviation="1.18033"/>
<feComposite in2="hardAlpha" operator="out"/>
<feColorMatrix type="matrix" values="0 0 0 0 0 0 0 0 0 0 0 0 0 0 0 0 0 0 0.25 0"/>
<feBlend mode="normal" in2="BackgroundImageFix" result="effect1_dropShadow_37_65"/>
<feBlend mode="normal" in="SourceGraphic" in2="effect1_dropShadow_37_65" result="shape"/>
</filter>
<clipPath id="clip0_37_65">
<rect width="16" height="16" fill="white"/>
</clipPath>
</defs>
</svg>
